<?xml version="1.0" encoding="utf-8"?>
<!-- Generator: Adobe Illustrator 26.0.2, SVG Export Plug-In . SVG Version: 6.00 Build 0)  -->
<svg version="1.1" id="레이어_1" xmlns="http://www.w3.org/2000/svg" xmlns:xlink="http://www.w3.org/1999/xlink" x="0px"
	 y="0px" viewBox="0 0 100 200" style="enable-background:new 0 0 100 200;" xml:space="preserve">
<style type="text/css">
	.st0{fill:#999999;}
	.st1{fill:#FFFFFF;}
</style>
<g>
	<path class="st0" d="M78.7,0c0.8,0.5,1,1.2,1,2.1c0,1.7,0,3.4,0,5.1c2.1-0.7,4.2-1.3,6.3-2c0.3-0.1,0.6-0.2,0.9-0.3
		c1-0.4,1.8-0.1,2.5,0.7c1.4,1.5,2.9,2.8,4.3,4.2c0.7-0.3,1.3-0.7,2-0.8c1.8-0.3,3.6,0.9,3.9,2.8c0.1,0.4,0.1,0.9,0.1,1.4
		c0,14.2,0,28.4,0,42.7c0,0.3,0,0.5,0,0.8c-0.1,1-0.7,1.6-1.5,1.6c-0.8,0-1.4-0.6-1.5-1.5c0-0.3,0-0.7,0-1c0-14,0-28,0-42
		c0-0.3,0-0.5,0-0.8c0-1.1-0.2-1.2-1.1-0.7c-3,1.7-6,3.3-8.9,5c-9,5.1-18.1,10.2-27.1,15.2c-1.2,0.7-1.6,1.4-1.6,2.7
		c0.1,19.6,0,39.1,0,58.7c0,2.1,0,2.1,1.8,1.1c12-6.8,24-13.5,36-20.2c0.7-0.4,0.9-0.8,0.9-1.5c0-2.2,0-4.5,0-6.7
		c0-0.9,0.3-1.6,1.2-1.8c1-0.2,1.8,0.4,1.8,1.5c0,2.6,0.1,5.3,0,7.9c0,1.5-0.9,2.4-2.2,3.1c-9.1,5.1-18.2,10.2-27.3,15.3
		c-3.2,1.8-6.4,3.6-9.6,5.4c-0.8,0.4-1.8,0.5-2.8,0.7c-0.2,0-0.4,0.1-0.6,0.2c-0.6,0.4-1.2,0.8-1.8,1.3c-3.6,0-7.3,0-10.9,0
		c-0.6-0.4-1.2-0.8-1.8-1.3c-0.1-0.1-0.3-0.2-0.5-0.2C41,98.8,40,98.3,39,97.7C26.9,90.9,14.9,84.1,2.8,77.4c-1.8-1-2.6-2.4-2.6-4.4
		c0-19.9,0-39.8,0-59.6c0-0.5,0-1,0.1-1.6C0.7,9.9,2.5,8.7,4.3,9c0.7,0.1,1.4,0.5,2,0.8c1.5-1.4,3-2.9,4.5-4.3
		c0.6-0.6,1.2-0.9,2.1-0.6C13.2,5,13.6,5.1,14,5.2c2.1,0.7,4.2,1.3,6.3,2c0-1.7,0-3.4,0-5.1c0-0.9,0.2-1.6,1-2.1c0.4,0,0.8,0,1.2,0
		c1.1,0.5,2.3,1,3.4,1.6C35.2,6,42.7,12.3,47.7,21.5c0.9,1.6,1.6,3.2,2.4,5c0.1-0.2,0.2-0.3,0.2-0.5C54.4,15.7,61.6,8.3,71.3,3
		c2-1.1,4.2-2,6.3-3C77.9,0,78.3,0,78.7,0z M3.3,43.1c0,10,0,20,0,30c0,0.9,0.3,1.4,1.1,1.8c12,6.7,23.9,13.4,35.9,20.1
		c1.7,1,1.8,0.9,1.8-1c0-19.6,0-39.2,0-58.9c0-1.3-0.4-2-1.5-2.6c-10.1-5.6-20.1-11.3-30.2-16.9c-2-1.1-4-2.3-6-3.4
		c-0.8-0.5-1-0.3-1,0.6c0,0.3,0,0.5,0,0.8C3.3,23.4,3.3,33.2,3.3,43.1z M8.9,11.3c0.6,0.3,0.9,0.5,1.2,0.7c10.7,6,21.4,12,32,18
		c1.8,1,3.5,1.1,5.5,0.9c-0.2-0.3-0.3-0.6-0.5-0.8c-3-4.4-6.8-8-11.1-11.2c-1-0.8-1.2-1.5-0.6-2.3c0.6-0.8,1.4-0.9,2.4-0.1
		c2.1,1.7,4.1,3.5,6.2,5.2c0.2,0.2,0.5,0.4,0.9,0.8C42,15.9,30,5.4,23.3,3.8c0,1.3,0,2.6,0,3.9c0,0.6,0.2,0.8,0.7,1.1
		c1.5,0.7,2.9,1.4,4.4,2.1c1.5,0.7,1.9,1.4,1.4,2.3c-0.5,1-1.2,1.1-2.7,0.3c-4.4-2.2-8.9-4.1-13.6-5.4C13.1,8,12.5,8,12.3,8.2
		C11.2,9.2,10.1,10.2,8.9,11.3z M55,83.7c0-12.2,0-24.3,0-36.3c-3.4,0-6.7,0-10,0c0,12.2,0,24.2,0,36.3C48.4,83.7,51.7,83.7,55,83.7
		z M52.4,30.9c2.1,0.2,3.8,0.1,5.6-0.9c9.8-5.6,19.7-11.1,29.5-16.7c1.1-0.6,2.2-1.3,3.7-2.1C90,10.3,89,9.4,88,8.4
		c-0.4-0.4-0.8-0.5-1.4-0.3c-4.4,1.3-8.7,2.9-12.8,5c-7.4,3.7-14,8.3-19.2,14.7C53.9,28.8,53.2,29.8,52.4,30.9z M76.7,3.7
		c-9.2,4.1-16.6,10-21.6,18.9c2.3-1.9,4.4-3.8,6.6-5.5c4.3-3.3,9.1-6,14.1-8.2c0.3-0.1,0.8-0.5,0.8-0.8C76.8,6.7,76.7,5.3,76.7,3.7z
		 M55.1,37.8c0-1.1,0-2.1,0-3.1c0-0.2-0.4-0.6-0.7-0.7c-2.9,0-5.8,0-8.8,0c-0.2,0-0.6,0.3-0.6,0.5c-0.1,1.1,0,2.2,0,3.3
		C48.4,37.8,51.7,37.8,55.1,37.8z M44.9,93.2c0,1.1,0,2.1,0,3c0,0.6,0.2,0.8,0.8,0.8c2.9,0,5.7,0,8.6,0c0.3,0,0.7-0.3,0.7-0.5
		c0.1-1.1,0-2.2,0-3.3C51.6,93.2,48.3,93.2,44.9,93.2z M44.9,44.3c3.4,0,6.8,0,10.1,0c0-1.2,0-2.3,0-3.4c-3.4,0-6.7,0-10.1,0
		C44.9,42,44.9,43.1,44.9,44.3z M55.1,86.8c-3.4,0-6.7,0-10.1,0c0,1.2,0,2.3,0,3.4c3.4,0,6.7,0,10.1,0C55.1,89,55.1,87.9,55.1,86.8z
		"/>
	<path class="st0" d="M62.3,47.2c0-1.3,0.1-2.6,0-3.9c-0.1-1.2,0.4-1.9,1.4-2.5c6.1-3.5,12.3-7,18.4-10.5c2.6-1.5,5.2-3,7.9-4.5
		c1.6-0.9,2.6-0.3,2.6,1.5c0,2.9,0,5.7,0,8.6c0,0.9-0.3,1.5-1.1,1.9C82.6,42.9,73.7,47.9,64.8,53c-1.4,0.8-2.5,0.2-2.5-1.4
		C62.3,50.1,62.3,48.6,62.3,47.2z M89.6,29.4c-0.4,0.2-0.7,0.4-1,0.5c-7.2,4.1-14.3,8.3-21.6,12.3c-1.4,0.8-2,1.6-1.8,3.2
		c0.1,1.2,0,2.5,0,3.9c2.3-1.3,4.4-2.5,6.4-3.7c5.7-3.3,11.5-6.5,17.2-9.8c0.3-0.2,0.7-0.6,0.7-1C89.7,33.1,89.6,31.4,89.6,29.4z"/>
	<path class="st0" d="M48.5,65.5c0-2.7,0-5.4,0-8.1c0-0.3,0-0.6,0-0.9c0.2-0.8,0.6-1.3,1.5-1.3c0.9,0,1.3,0.5,1.5,1.3
		c0.1,0.3,0,0.6,0,1c0,5.3,0,10.7,0,16c0,0.2,0,0.5,0,0.7c-0.1,1-0.6,1.6-1.5,1.6c-0.9,0-1.4-0.6-1.5-1.6c0-0.3,0-0.5,0-0.8
		C48.5,70.8,48.5,68.2,48.5,65.5z"/>
</g>
<g>
	<path class="st1" d="M78.7,100c0.8,0.5,1,1.2,1,2.1c0,1.7,0,3.4,0,5.1c2.1-0.7,4.2-1.3,6.3-2c0.3-0.1,0.6-0.2,0.9-0.3
		c1-0.4,1.8-0.1,2.5,0.7c1.4,1.5,2.9,2.8,4.3,4.2c0.7-0.3,1.3-0.7,2-0.8c1.8-0.3,3.6,0.9,3.9,2.8c0.1,0.4,0.1,0.9,0.1,1.4
		c0,14.2,0,28.4,0,42.7c0,0.3,0,0.5,0,0.8c-0.1,1-0.7,1.6-1.5,1.6c-0.8,0-1.4-0.6-1.5-1.5c0-0.3,0-0.7,0-1c0-14,0-28,0-42
		c0-0.3,0-0.5,0-0.8c0-1.1-0.2-1.2-1.1-0.7c-3,1.7-6,3.3-8.9,5c-9,5.1-18.1,10.2-27.1,15.2c-1.2,0.7-1.6,1.4-1.6,2.7
		c0.1,19.6,0,39.1,0,58.7c0,2.1,0,2.1,1.8,1.1c12-6.8,24-13.5,36-20.2c0.7-0.4,0.9-0.8,0.9-1.5c0-2.2,0-4.5,0-6.7
		c0-0.9,0.3-1.6,1.2-1.8c1-0.2,1.8,0.4,1.8,1.5c0,2.6,0.1,5.3,0,7.9c0,1.5-0.9,2.4-2.2,3.1c-9.1,5.1-18.2,10.2-27.3,15.3
		c-3.2,1.8-6.4,3.6-9.6,5.4c-0.8,0.4-1.8,0.5-2.8,0.7c-0.2,0-0.4,0.1-0.6,0.2c-0.6,0.4-1.2,0.8-1.8,1.3c-3.6,0-7.3,0-10.9,0
		c-0.6-0.4-1.2-0.8-1.8-1.3c-0.1-0.1-0.3-0.2-0.5-0.2c-1.2,0.2-2.2-0.3-3.2-0.8c-12.1-6.8-24.1-13.6-36.2-20.3
		c-1.8-1-2.6-2.4-2.6-4.4c0-19.9,0-39.8,0-59.6c0-0.5,0-1,0.1-1.6c0.4-1.9,2.1-3.1,3.9-2.8c0.7,0.1,1.4,0.5,2,0.8
		c1.5-1.4,3-2.9,4.5-4.3c0.6-0.6,1.2-0.9,2.1-0.6c0.4,0.1,0.8,0.2,1.1,0.3c2.1,0.7,4.2,1.3,6.3,2c0-1.7,0-3.4,0-5.1
		c0-0.9,0.2-1.6,1-2.1c0.4,0,0.8,0,1.2,0c1.1,0.5,2.3,1,3.4,1.6c9.3,4.4,16.8,10.7,21.8,19.9c0.9,1.6,1.6,3.2,2.4,5
		c0.1-0.2,0.2-0.3,0.2-0.5c4.1-10.3,11.4-17.7,21-22.9c2-1.1,4.2-2,6.3-3C77.9,100,78.3,100,78.7,100z M3.3,143.1c0,10,0,20,0,30
		c0,0.9,0.3,1.4,1.1,1.8c12,6.7,23.9,13.4,35.9,20.1c1.7,1,1.8,0.9,1.8-1c0-19.6,0-39.2,0-58.9c0-1.3-0.4-2-1.5-2.6
		c-10.1-5.6-20.1-11.3-30.2-16.9c-2-1.1-4-2.3-6-3.4c-0.8-0.5-1-0.3-1,0.6c0,0.3,0,0.5,0,0.8C3.3,123.4,3.3,133.2,3.3,143.1z
		 M8.9,111.3c0.6,0.3,0.9,0.5,1.2,0.7c10.7,6,21.4,12,32,18c1.8,1,3.5,1.1,5.5,0.9c-0.2-0.3-0.3-0.6-0.5-0.8c-3-4.4-6.8-8-11.1-11.2
		c-1-0.8-1.2-1.5-0.6-2.3c0.6-0.8,1.4-0.9,2.4-0.1c2.1,1.7,4.1,3.5,6.2,5.2c0.2,0.2,0.5,0.4,0.9,0.8c-2.8-6.7-14.8-17.2-21.5-18.8
		c0,1.3,0,2.6,0,3.9c0,0.6,0.2,0.8,0.7,1.1c1.5,0.7,2.9,1.4,4.4,2.1c1.5,0.7,1.9,1.4,1.4,2.3c-0.5,1-1.2,1.1-2.7,0.3
		c-4.4-2.2-8.9-4.1-13.6-5.4c-0.4-0.1-0.9-0.1-1.1,0.1C11.2,109.2,10.1,110.2,8.9,111.3z M55,183.7c0-12.2,0-24.3,0-36.3
		c-3.4,0-6.7,0-10,0c0,12.2,0,24.2,0,36.3C48.4,183.7,51.7,183.7,55,183.7z M52.4,130.9c2.1,0.2,3.8,0.1,5.6-0.9
		c9.8-5.6,19.7-11.1,29.5-16.7c1.1-0.6,2.2-1.3,3.7-2.1c-1.1-1-2.2-1.9-3.2-2.9c-0.4-0.4-0.8-0.5-1.4-0.3c-4.4,1.3-8.7,2.9-12.8,5
		c-7.4,3.7-14,8.3-19.2,14.7C53.9,128.8,53.2,129.8,52.4,130.9z M76.7,103.7c-9.2,4.1-16.6,10-21.6,18.9c2.3-1.9,4.4-3.8,6.6-5.5
		c4.3-3.3,9.1-6,14.1-8.2c0.3-0.1,0.8-0.5,0.8-0.8C76.8,106.7,76.7,105.3,76.7,103.7z M55.1,137.8c0-1.1,0-2.1,0-3.1
		c0-0.2-0.4-0.6-0.7-0.7c-2.9,0-5.8,0-8.8,0c-0.2,0-0.6,0.3-0.6,0.5c-0.1,1.1,0,2.2,0,3.3C48.4,137.8,51.7,137.8,55.1,137.8z
		 M44.9,193.2c0,1.1,0,2.1,0,3c0,0.6,0.2,0.8,0.8,0.8c2.9,0,5.7,0,8.6,0c0.3,0,0.7-0.3,0.7-0.5c0.1-1.1,0-2.2,0-3.3
		C51.6,193.2,48.3,193.2,44.9,193.2z M44.9,144.3c3.4,0,6.8,0,10.1,0c0-1.2,0-2.3,0-3.4c-3.4,0-6.7,0-10.1,0
		C44.9,142,44.9,143.1,44.9,144.3z M55.1,186.8c-3.4,0-6.7,0-10.1,0c0,1.2,0,2.3,0,3.4c3.4,0,6.7,0,10.1,0
		C55.1,189,55.1,187.9,55.1,186.8z"/>
	<path class="st1" d="M62.3,147.2c0-1.3,0.1-2.6,0-3.9c-0.1-1.2,0.4-1.9,1.4-2.5c6.1-3.5,12.3-7,18.4-10.5c2.6-1.5,5.2-3,7.9-4.5
		c1.6-0.9,2.6-0.3,2.6,1.5c0,2.9,0,5.7,0,8.6c0,0.9-0.3,1.5-1.1,1.9c-8.9,5.1-17.8,10.2-26.7,15.2c-1.4,0.8-2.5,0.2-2.5-1.4
		C62.3,150.1,62.3,148.6,62.3,147.2z M89.6,129.4c-0.4,0.2-0.7,0.4-1,0.5c-7.2,4.1-14.3,8.3-21.6,12.3c-1.4,0.8-2,1.6-1.8,3.2
		c0.1,1.2,0,2.5,0,3.9c2.3-1.3,4.4-2.5,6.4-3.7c5.7-3.3,11.5-6.5,17.2-9.8c0.3-0.2,0.7-0.6,0.7-1C89.7,133.1,89.6,131.4,89.6,129.4z
		"/>
	<path class="st1" d="M48.5,165.5c0-2.7,0-5.4,0-8.1c0-0.3,0-0.6,0-0.9c0.2-0.8,0.6-1.3,1.5-1.3c0.9,0,1.3,0.5,1.5,1.3
		c0.1,0.3,0,0.6,0,1c0,5.3,0,10.7,0,16c0,0.2,0,0.5,0,0.7c-0.1,1-0.6,1.6-1.5,1.6c-0.9,0-1.4-0.6-1.5-1.6c0-0.3,0-0.5,0-0.8
		C48.5,170.8,48.5,168.2,48.5,165.5z"/>
</g>
</svg>
