<?xml version="1.0" encoding="utf-8"?>
<!-- Generator: Adobe Illustrator 26.0.2, SVG Export Plug-In . SVG Version: 6.00 Build 0)  -->
<svg version="1.1" id="레이어_1" xmlns="http://www.w3.org/2000/svg" xmlns:xlink="http://www.w3.org/1999/xlink" x="0px"
	 y="0px" viewBox="0 0 100 200" style="enable-background:new 0 0 100 200;" xml:space="preserve">
<style type="text/css">
	.st0{fill:#999999;}
	.st1{fill:#FFFFFF;}
</style>
<g>
	<path class="st0" d="M0,55.5c0.3-1.2,0.6-2.4,1-3.5c1.7-4.6,4.9-7.8,9.4-9.6c0.5-0.2,0.9-0.6,1.2-1c2.4-3.5,4.7-7.1,7.3-10.5
		c4.5-6.1,10.6-9.2,18.2-9.3c5-0.1,10,0,14.9,0c8,0,14.3,3.3,18.9,9.8c2.3,3.2,4.5,6.5,6.7,9.8c0.3,0.5,0.7,0.7,1.3,0.7
		c2.7,0.1,5.4-0.1,8,0.4c6.7,1.2,11.9,7,12.9,13.7c0,0.2,0.1,0.4,0.2,0.6c0,3.5,0,6.9,0,10.4c-0.5,1.1-1.4,1.4-2.5,1.4
		c-2.3-0.1-4.5,0-6.8,0c-0.9,6.7-4.5,10.2-10.2,10.2c-5.2-0.1-8.8-3.9-9.6-10.2c-0.3,0-0.7,0-1,0c-3.5,0-7.1,0-10.6,0
		c-1.4,0-2.2-0.7-2.2-1.9c0-1.3,0.8-2,2.2-2c3.9,0,7.9,0,11.8,0c0.6,0,1-0.1,1.3-0.7c3.9-6.4,12.9-6.4,16.8,0
		c0.3,0.5,0.6,0.7,1.1,0.7c1.9,0,3.8,0,5.7,0c0.3-5.8,0.5-11.6-4.6-15.8c-2.4-2-5.1-2.9-8.2-3c-1.9,0-3.8,0-5.8,0
		c-1,0-1.7-0.4-2.3-1.2c-2.4-3.5-4.8-7-7.2-10.6c-3.9-5.7-9.4-8.5-16.3-8.6c-4.7,0-9.3,0-14,0c-6.9,0-12.4,2.9-16.3,8.6
		c-2.4,3.5-4.8,7-7.2,10.4c-0.4,0.5-1,1-1.6,1.2c-5.4,1.9-8.6,6.4-8.7,12.1c0,1.5,0,2.9,0,4.4c0,1.5,0.8,2.3,2.3,2.3
		c1.3,0,2.6,0,3.9,0c0.3,0,0.8-0.3,1-0.6c4.1-6.5,13-6.6,16.9,0c0.3,0.5,0.6,0.6,1.2,0.6c4,0,8.1,0,12.1,0c1.1,0,1.9,0.6,2,1.6
		c0.2,0.9-0.4,1.9-1.3,2.2c-0.4,0.1-0.8,0.1-1.2,0.1c-3.8,0-7.6,0-11.5,0c0,3.6-1.4,6.5-4.3,8.5c-1.9,1.4-4.1,1.9-6.5,1.6
		c-4-0.4-8.6-3.6-8.8-10.1c-1.2,0-2.3,0-3.5,0c-3.1,0-5.1-1.4-6.1-4.5c0-0.1-0.1-0.2-0.2-0.2C0,60.9,0,58.2,0,55.5z M25.4,68.7
		c0-3.2-2.7-5.9-5.8-5.8c-3.2,0-5.8,2.7-5.8,5.9c0,3.2,2.7,5.9,5.9,5.8C22.8,74.6,25.4,71.9,25.4,68.7z M75,68.7
		c0,3.2,2.6,5.9,5.8,5.9c3.2,0,5.8-2.6,5.8-5.9c0-3.2-2.6-5.9-5.8-5.9C77.6,62.9,75,65.5,75,68.7z"/>
	<path class="st0" d="M57.3,45.7c-3.3,0-6.6,0-10,0c-1.5,0-2.3-0.7-2.3-2.2c0-4,0-7.9,0-11.9c0-1.5,0.8-2.3,2.3-2.2
		c2.8,0.1,5.6,0,8.3,0.4c3.6,0.6,6.4,2.6,8.5,5.6c1.7,2.3,3.3,4.8,4.9,7.1c0.5,0.7,0.6,1.4,0.2,2.2c-0.4,0.8-1.1,1.1-2,1.1
		C64,45.7,60.6,45.7,57.3,45.7z M63.7,41.7c-3-6.5-8.5-9.6-14.7-8.4c0,2.8,0,5.6,0,8.4C54,41.7,58.8,41.7,63.7,41.7z"/>
	<path class="st0" d="M30.5,45.7c-2.8,0-5.6,0-8.4,0c-0.9,0-1.6-0.2-2-1c-0.4-0.8-0.2-1.6,0.3-2.3c1.8-2.6,3.5-5.3,5.4-7.7
		c2.8-3.5,6.7-5.3,11.2-5.4c0.7,0,1.3,0,2,0c1.3,0,2.2,0.7,2.2,2c0,4.1,0,8.3,0,12.4c0,1.3-0.9,2-2.2,2
		C36.1,45.7,33.3,45.7,30.5,45.7z M25.6,41.7c4,0,7.8,0,11.5,0c0-2.9,0-5.6,0-8.5c-3.4,0.1-6.2,1.4-8.3,3.9
		C27.7,38.6,26.7,40.1,25.6,41.7z"/>
	<path class="st0" d="M48.1,53.5c-0.4,0-0.8,0-1.3,0c-1.1-0.1-1.8-0.9-1.9-1.9c0-1,0.8-1.9,1.8-2c0.9-0.1,1.8-0.1,2.7,0
		c1.1,0.1,1.8,1,1.7,2c0,1-0.8,1.8-1.9,1.9C49,53.6,48.5,53.5,48.1,53.5z"/>
	<path class="st0" d="M50.2,68.4c-1.1,0-2-0.8-2-2c0-1.1,0.8-1.9,1.9-1.9c1.1,0,2,0.8,2,1.9C52.2,67.4,51.3,68.3,50.2,68.4z"/>
	<path class="st0" d="M19.6,66.8c1.1,0,1.9,0.9,1.9,2c0,1.1-0.8,1.9-1.9,1.9c-1.1,0-2-0.9-2-1.9C17.6,67.7,18.5,66.8,19.6,66.8z"/>
	<path class="st0" d="M80.8,70.7c-1.1,0-2-0.9-2-2c0-1.1,0.9-2,2-1.9c1,0,1.9,0.9,1.9,1.9C82.8,69.8,81.9,70.7,80.8,70.7z"/>
</g>
<g>
	<path class="st1" d="M0,155.5c0.3-1.2,0.6-2.4,1-3.5c1.7-4.6,4.9-7.8,9.4-9.6c0.5-0.2,0.9-0.6,1.2-1c2.4-3.5,4.7-7.1,7.3-10.5
		c4.5-6.1,10.6-9.2,18.2-9.3c5-0.1,10,0,14.9,0c8,0,14.3,3.3,18.9,9.8c2.3,3.2,4.5,6.5,6.7,9.8c0.3,0.5,0.7,0.7,1.3,0.7
		c2.7,0.1,5.4-0.1,8,0.4c6.7,1.2,11.9,7,12.9,13.7c0,0.2,0.1,0.4,0.2,0.6c0,3.5,0,6.9,0,10.4c-0.5,1.1-1.4,1.4-2.5,1.4
		c-2.3-0.1-4.5,0-6.8,0c-0.9,6.7-4.5,10.2-10.2,10.2c-5.2-0.1-8.8-3.9-9.6-10.2c-0.3,0-0.7,0-1,0c-3.5,0-7.1,0-10.6,0
		c-1.4,0-2.2-0.7-2.2-1.9c0-1.3,0.8-2,2.2-2c3.9,0,7.9,0,11.8,0c0.6,0,1-0.1,1.3-0.7c3.9-6.4,12.9-6.4,16.8,0
		c0.3,0.5,0.6,0.7,1.1,0.7c1.9,0,3.8,0,5.7,0c0.3-5.8,0.5-11.6-4.6-15.8c-2.4-2-5.1-2.9-8.2-3c-1.9,0-3.8,0-5.8,0
		c-1,0-1.7-0.4-2.3-1.2c-2.4-3.5-4.8-7-7.2-10.6c-3.9-5.7-9.4-8.5-16.3-8.6c-4.7,0-9.3,0-14,0c-6.9,0-12.4,2.9-16.3,8.6
		c-2.4,3.5-4.8,7-7.2,10.4c-0.4,0.5-1,1-1.6,1.2c-5.4,1.9-8.6,6.4-8.7,12.1c0,1.5,0,2.9,0,4.4c0,1.5,0.8,2.3,2.3,2.3
		c1.3,0,2.6,0,3.9,0c0.3,0,0.8-0.3,1-0.6c4.1-6.5,13-6.6,16.9,0c0.3,0.5,0.6,0.6,1.2,0.6c4,0,8.1,0,12.1,0c1.1,0,1.9,0.6,2,1.6
		c0.2,0.9-0.4,1.9-1.3,2.2c-0.4,0.1-0.8,0.1-1.2,0.1c-3.8,0-7.6,0-11.5,0c0,3.6-1.4,6.5-4.3,8.5c-1.9,1.4-4.1,1.9-6.5,1.6
		c-4-0.4-8.6-3.6-8.8-10.1c-1.2,0-2.3,0-3.5,0c-3.1,0-5.1-1.4-6.1-4.5c0-0.1-0.1-0.2-0.2-0.2C0,160.9,0,158.2,0,155.5z M25.4,168.7
		c0-3.2-2.7-5.9-5.8-5.8c-3.2,0-5.8,2.7-5.8,5.9c0,3.2,2.7,5.9,5.9,5.8C22.8,174.6,25.4,171.9,25.4,168.7z M75,168.7
		c0,3.2,2.6,5.9,5.8,5.9c3.2,0,5.8-2.6,5.8-5.9c0-3.2-2.6-5.9-5.8-5.9C77.6,162.9,75,165.5,75,168.7z"/>
	<path class="st1" d="M57.3,145.7c-3.3,0-6.6,0-10,0c-1.5,0-2.3-0.7-2.3-2.2c0-4,0-7.9,0-11.9c0-1.5,0.8-2.3,2.3-2.2
		c2.8,0.1,5.6,0,8.3,0.4c3.6,0.6,6.4,2.6,8.5,5.6c1.7,2.3,3.3,4.8,4.9,7.1c0.5,0.7,0.6,1.4,0.2,2.2c-0.4,0.8-1.1,1.1-2,1.1
		C64,145.7,60.6,145.7,57.3,145.7z M63.7,141.7c-3-6.5-8.5-9.6-14.7-8.4c0,2.8,0,5.6,0,8.4C54,141.7,58.8,141.7,63.7,141.7z"/>
	<path class="st1" d="M30.5,145.7c-2.8,0-5.6,0-8.4,0c-0.9,0-1.6-0.2-2-1c-0.4-0.8-0.2-1.6,0.3-2.3c1.8-2.6,3.5-5.3,5.4-7.7
		c2.8-3.5,6.7-5.3,11.2-5.4c0.7,0,1.3,0,2,0c1.3,0,2.2,0.7,2.2,2c0,4.1,0,8.3,0,12.4c0,1.3-0.9,2-2.2,2
		C36.1,145.7,33.3,145.7,30.5,145.7z M25.6,141.7c4,0,7.8,0,11.5,0c0-2.9,0-5.6,0-8.5c-3.4,0.1-6.2,1.4-8.3,3.9
		C27.7,138.6,26.7,140.1,25.6,141.7z"/>
	<path class="st1" d="M48.1,153.5c-0.4,0-0.8,0-1.3,0c-1.1-0.1-1.8-0.9-1.9-1.9c0-1,0.8-1.9,1.8-2c0.9-0.1,1.8-0.1,2.7,0
		c1.1,0.1,1.8,1,1.7,2c0,1-0.8,1.8-1.9,1.9C49,153.6,48.5,153.5,48.1,153.5z"/>
	<path class="st1" d="M50.2,168.4c-1.1,0-2-0.8-2-2c0-1.1,0.8-1.9,1.9-1.9c1.1,0,2,0.8,2,1.9C52.2,167.4,51.3,168.3,50.2,168.4z"/>
	<path class="st1" d="M19.6,166.8c1.1,0,1.9,0.9,1.9,2c0,1.1-0.8,1.9-1.9,1.9c-1.1,0-2-0.9-2-1.9C17.6,167.7,18.5,166.8,19.6,166.8z
		"/>
	<path class="st1" d="M80.8,170.7c-1.1,0-2-0.9-2-2c0-1.1,0.9-2,2-1.9c1,0,1.9,0.9,1.9,1.9C82.8,169.8,81.9,170.7,80.8,170.7z"/>
</g>
</svg>
