<?xml version="1.0" encoding="utf-8"?>
<!-- Generator: Adobe Illustrator 26.0.2, SVG Export Plug-In . SVG Version: 6.00 Build 0)  -->
<svg version="1.1" id="레이어_1" xmlns="http://www.w3.org/2000/svg" xmlns:xlink="http://www.w3.org/1999/xlink" x="0px"
	 y="0px" viewBox="0 0 100 200" style="enable-background:new 0 0 100 200;" xml:space="preserve">
<style type="text/css">
	.st0{fill:#999999;}
	.st1{fill:#FFFFFF;}
</style>
<g>
	<path class="st0" d="M100,80.9c-0.6,1.4-1.2,2.8-2.4,3.8c-1.2,0.9-2.6,1.5-4.1,1.5c-29,0-58,0-87.1,0c-2.8,0-5.2-1.8-6.1-4.5
		c-0.1-0.3-0.2-0.5-0.3-0.8c0-0.8,0-1.7,0-2.5c0.7-2.6,2.4-4.1,4.6-5.5c14.3-9.3,28.5-18.6,42.7-27.9c0.6-0.4,0.8-0.7,0.8-1.4
		c0-2.4,0-4.8,0-7.2c0-1.8,0.6-2.4,2.4-2.5c4-0.3,7.3-3.3,7.6-7c0.4-4.5-2.1-8.1-6.4-9c-5.2-1-9.4,2.7-9.7,7.3
		c0,0.3-0.1,0.6-0.1,0.9c-0.2,1.1-1,1.7-2,1.6c-1.1-0.1-1.7-0.8-1.7-2c-0.1-4.6,3.1-9.3,7.6-11c8.3-3.1,16.7,3.1,16.2,11.9
		c-0.3,5-4,9.5-8.8,10.7c-0.9,0.2-1.3,0.6-1.2,1.6c0.1,1.5,0.1,3.1,0,4.6c0,0.8,0.2,1.1,0.9,1.5C66.9,54.2,81,63.4,95.2,72.6
		c2.2,1.4,4.1,3,4.8,5.7C100,79.2,100,80,100,80.9z M49.9,82.5c14.1,0,28.1,0,42.2,0c0.5,0,0.9,0,1.4,0c1.4-0.1,2.3-1,2.7-2.3
		c0.4-1.2,0-2.3-1.1-3.2c-0.3-0.2-0.6-0.5-1-0.7C79.7,67,65.3,57.6,50.9,48.2c-0.7-0.4-1.1-0.4-1.8,0C34.7,57.7,20.2,67.2,5.8,76.6
		c-0.3,0.2-0.6,0.4-0.9,0.6c-1,0.9-1.4,2-1,3.3c0.4,1.2,1.3,1.9,2.6,2c0.5,0,0.9,0,1.4,0C22,82.5,36,82.5,49.9,82.5z"/>
</g>
<g>
	<path class="st1" d="M100,180.9c-0.6,1.4-1.2,2.8-2.4,3.8c-1.2,0.9-2.6,1.5-4.1,1.5c-29,0-58,0-87.1,0c-2.8,0-5.2-1.8-6.1-4.5
		c-0.1-0.3-0.2-0.5-0.3-0.8c0-0.8,0-1.7,0-2.5c0.7-2.6,2.4-4.1,4.6-5.5c14.3-9.3,28.5-18.6,42.7-27.9c0.6-0.4,0.8-0.7,0.8-1.4
		c0-2.4,0-4.8,0-7.2c0-1.8,0.6-2.4,2.4-2.5c4-0.3,7.3-3.3,7.6-7c0.4-4.5-2.1-8.1-6.4-9c-5.2-1-9.4,2.7-9.7,7.3
		c0,0.3-0.1,0.6-0.1,0.9c-0.2,1.1-1,1.7-2,1.6c-1.1-0.1-1.7-0.8-1.7-2c-0.1-4.6,3.1-9.3,7.6-11c8.3-3.1,16.7,3.1,16.2,11.9
		c-0.3,5-4,9.5-8.8,10.7c-0.9,0.2-1.3,0.6-1.2,1.6c0.1,1.5,0.1,3.1,0,4.6c0,0.8,0.2,1.1,0.9,1.5c14.2,9.2,28.3,18.4,42.4,27.6
		c2.2,1.4,4.1,3,4.8,5.7C100,179.2,100,180,100,180.9z M49.9,182.5c14.1,0,28.1,0,42.2,0c0.5,0,0.9,0,1.4,0c1.4-0.1,2.3-1,2.7-2.3
		c0.4-1.2,0-2.3-1.1-3.2c-0.3-0.2-0.6-0.5-1-0.7c-14.4-9.4-28.8-18.7-43.2-28.1c-0.7-0.4-1.1-0.4-1.8,0
		c-14.4,9.5-28.9,18.9-43.3,28.4c-0.3,0.2-0.6,0.4-0.9,0.6c-1,0.9-1.4,2-1,3.3c0.4,1.2,1.3,1.9,2.6,2c0.5,0,0.9,0,1.4,0
		C22,182.5,36,182.5,49.9,182.5z"/>
</g>
</svg>
