<?xml version="1.0" encoding="utf-8"?>
<!-- Generator: Adobe Illustrator 26.0.2, SVG Export Plug-In . SVG Version: 6.00 Build 0)  -->
<svg version="1.1" id="레이어_1" xmlns="http://www.w3.org/2000/svg" xmlns:xlink="http://www.w3.org/1999/xlink" x="0px"
	 y="0px" viewBox="0 0 100 200" style="enable-background:new 0 0 100 200;" xml:space="preserve">
<style type="text/css">
	.st0{fill:#999999;}
	.st1{fill:#FFFFFF;}
</style>
<g>
	<path class="st0" d="M97.7,100c-31.8,0-63.5,0-95.3,0c-1.1-0.5-1.9-1.2-2.3-2.3c0-5.8,0-11.6,0-17.4c0.9-1.8,2.5-2.5,4.5-2.1
		c-0.4-4.8-0.9-9.4-1.3-14.1c-1.7,0-2.6-1-3.2-2.4c0-0.5,0-1,0-1.6c0.1-0.1,0.2-0.3,0.2-0.4c1.2-4.4,2.5-8.9,3.7-13.3
		c0.5-1.9,1.6-2.7,3.5-2.7c5.8,0,11.6,0,17.5,0c0.3,0,0.7,0,1.1,0c0.7-9.4,1.3-18.7,2-28c-1.5-0.8-1.6-1.1-1.2-2.8
		c0.9-3.7,1.8-7.5,2.8-11.2c0.2-0.6,0.7-1.2,1.1-1.7c21.2,0,42.4,0,63.7,0c0.7,0.5,1,1.2,1,2.1c0.1,6,0.3,11.9,0.4,17.9
		c0.3,12.9,0.6,25.8,0.9,38.7c0.1,2.9,0,5.7,0.3,8.6c0.3,3.6,0.9,7.1,1.3,10.6c0,0.3,0.2,0.5,0.4,0.7c0.4,0.6,0.9,1.2,1.4,1.8
		c0,5.7,0,11.5,0,17.2C99.6,98.8,98.8,99.5,97.7,100z M83.1,78.1c0.5-5.2,1.1-10.4,1.5-15.5c0.4-5.6,0.7-11.2,1-16.8
		c0.3-4.6,0.5-9.2,0.8-13.7c0.3-5.1,0.6-10.3,0.9-15.4c0-0.3,0-0.6,0-0.9c-6.7,0-13.4,0-20.1,0c0,1,0,2,0,3c0,1.3-1.1,1.9-2.2,1.4
		c-0.3-0.1-0.6-0.2-0.8-0.4c-1.1-0.8-2.2-0.8-3.3,0c-0.1,0.1-0.2,0.1-0.3,0.2c-0.8,0.5-1.6,0.5-2.4,0c-1.3-0.9-2.5-0.9-3.8,0
		c-1.6,1.1-2.9,0-2.9-1.7c0.1-4.7,0-9.3,0-14c0-0.3,0-0.7,0-1.1c-6.4,0-12.7,0-19.1,0c-0.8,3.1-1.5,6.2-2.3,9.3c0.5,0,0.9,0,1.2,0
		c5.6,0,11.2,0,16.8,0c0.9,0,1.5,0.3,1.8,1.2c0.3,1.1-0.5,2-1.8,2c-5.3,0-10.6,0-15.9,0c-0.3,0-0.7,0-1.1,0
		c-0.7,9.4-1.3,18.7-2,28.1c0.4,0,0.8,0,1.1,0c5.2,0,10.4,0,15.6,0c1.6,0,2.8,0.8,3.2,2.3c1.3,4.7,2.6,9.4,3.9,14.1
		c0.5,1.7-0.6,3.5-2.4,3.9c-0.2,0.1-0.5,0.1-0.8,0.1c-0.4,4.7-0.8,9.3-1.3,13.9C60.1,78.1,71.5,78.1,83.1,78.1z M60.9,81.3
		c0,2.1,0,4.2,0,6.2c0,1.8-1.3,3.1-3.2,3.1c-5.2,0-10.4,0-15.6,0c-1.8,0-3.1-1.3-3.1-3.1c0-1,0-2,0-2.9c0-1.2,0.6-1.8,1.6-1.8
		c0.9,0,1.5,0.7,1.5,1.8c0,1,0,1.9,0,2.9c5.3,0,10.4,0,15.6,0c0-2.1,0-4.1,0-6.1c-18.2,0-36.4,0-54.6,0c0,5.2,0,10.4,0,15.5
		c31.3,0,62.5,0,93.6,0c0-5.2,0-10.3,0-15.5C84.9,81.3,73,81.3,60.9,81.3z M7.1,46.9c-1.3,4.7-2.6,9.3-3.9,14c15.6,0,31.2,0,46.7,0
		c-1.3-4.7-2.6-9.4-3.9-14C33,46.9,20.1,46.9,7.1,46.9z M6.4,64.1c0.4,4.7,0.9,9.3,1.3,14c12.6,0,25.1,0,37.6,0
		c0.5-4.7,0.9-9.3,1.4-13.9c-4.1,0-8.2,0-12.3,0c0,1,0,2,0,3c0,1.9-1.3,3.2-3.2,3.2c-3.1,0-6.2,0-9.3,0c-1.9,0-3.2-1.3-3.2-3.2
		c0-1,0-2,0-3C14.6,64.1,10.6,64.1,6.4,64.1z M95.1,78.1c-0.4-3.6-1.1-7.1-1.3-10.6c-0.4-10.9-0.6-21.7-0.8-32.6
		c-0.2-6.6-0.3-13.1-0.5-19.7c0-0.3-0.1-0.6-0.1-0.9c-0.4,0.4-0.8,1-1.2,1.2c-0.6,0.2-0.6,0.5-0.7,1c-0.2,2.7-0.3,5.4-0.5,8.1
		c-0.3,4.9-0.6,9.9-0.9,14.8c-0.3,5-0.6,10.1-0.9,15.1c-0.2,4-0.4,7.9-0.7,11.9c-0.3,3.9-0.9,7.8-1.3,11.8
		C89.1,78.1,92.1,78.1,95.1,78.1z M67.2,12.4c7.4,0,14.8,0,22.2,0c0.8-3.1,1.5-6.2,2.3-9.3c-8.3,0-16.3,0-24.5,0
		C67.2,6.3,67.2,9.3,67.2,12.4z M64,3.2c-3.2,0-6.2,0-9.3,0c0,4.3,0,8.6,0,13c1-0.6,1.8-0.7,2.7-0.2c0.3,0.2,0.7,0.3,0.9,0.5
		c0.7,0.5,1.3,0.4,2,0c1.1-0.6,2.3-1.4,3.6-0.2C64,11.8,64,7.5,64,3.2z M21.9,67.1c3.1,0,6.2,0,9.3,0c0-1.1,0-2,0-3
		c-3.1,0-6.2,0-9.3,0C21.9,65.1,21.9,66.1,21.9,67.1z"/>
</g>
<g>
	<path class="st1" d="M97.7,200c-31.8,0-63.5,0-95.3,0c-1.1-0.5-1.9-1.2-2.3-2.3c0-5.8,0-11.6,0-17.4c0.9-1.8,2.5-2.5,4.5-2.1
		c-0.4-4.8-0.9-9.4-1.3-14.1c-1.7,0-2.6-1-3.2-2.4c0-0.5,0-1,0-1.6c0.1-0.1,0.2-0.3,0.2-0.4c1.2-4.4,2.5-8.9,3.7-13.3
		c0.5-1.9,1.6-2.7,3.5-2.7c5.8,0,11.6,0,17.5,0c0.3,0,0.7,0,1.1,0c0.7-9.4,1.3-18.7,2-28c-1.5-0.8-1.6-1.1-1.2-2.8
		c0.9-3.7,1.8-7.5,2.8-11.2c0.2-0.6,0.7-1.2,1.1-1.7c21.2,0,42.4,0,63.7,0c0.7,0.5,1,1.2,1,2.1c0.1,6,0.3,11.9,0.4,17.9
		c0.3,12.9,0.6,25.8,0.9,38.7c0.1,2.9,0,5.7,0.3,8.6c0.3,3.6,0.9,7.1,1.3,10.6c0,0.3,0.2,0.5,0.4,0.7c0.4,0.6,0.9,1.2,1.4,1.8
		c0,5.7,0,11.5,0,17.2C99.6,198.8,98.8,199.5,97.7,200z M83.1,178.1c0.5-5.2,1.1-10.4,1.5-15.5c0.4-5.6,0.7-11.2,1-16.8
		c0.3-4.6,0.5-9.2,0.8-13.7c0.3-5.1,0.6-10.3,0.9-15.4c0-0.3,0-0.6,0-0.9c-6.7,0-13.4,0-20.1,0c0,1,0,2,0,3c0,1.3-1.1,1.9-2.2,1.4
		c-0.3-0.1-0.6-0.2-0.8-0.4c-1.1-0.8-2.2-0.8-3.3,0c-0.1,0.1-0.2,0.1-0.3,0.2c-0.8,0.5-1.6,0.5-2.4,0c-1.3-0.9-2.5-0.9-3.8,0
		c-1.6,1.1-2.9,0-2.9-1.7c0.1-4.7,0-9.3,0-14c0-0.3,0-0.7,0-1.1c-6.4,0-12.7,0-19.1,0c-0.8,3.1-1.5,6.2-2.3,9.3c0.5,0,0.9,0,1.2,0
		c5.6,0,11.2,0,16.8,0c0.9,0,1.5,0.3,1.8,1.2c0.3,1.1-0.5,2-1.8,2c-5.3,0-10.6,0-15.9,0c-0.3,0-0.7,0-1.1,0
		c-0.7,9.4-1.3,18.7-2,28.1c0.4,0,0.8,0,1.1,0c5.2,0,10.4,0,15.6,0c1.6,0,2.8,0.8,3.2,2.3c1.3,4.7,2.6,9.4,3.9,14.1
		c0.5,1.7-0.6,3.5-2.4,3.9c-0.2,0.1-0.5,0.1-0.8,0.1c-0.4,4.7-0.8,9.3-1.3,13.9C60.1,178.1,71.5,178.1,83.1,178.1z M60.9,181.3
		c0,2.1,0,4.2,0,6.2c0,1.8-1.3,3.1-3.2,3.1c-5.2,0-10.4,0-15.6,0c-1.8,0-3.1-1.3-3.1-3.1c0-1,0-2,0-2.9c0-1.2,0.6-1.8,1.6-1.8
		c0.9,0,1.5,0.7,1.5,1.8c0,1,0,1.9,0,2.9c5.3,0,10.4,0,15.6,0c0-2.1,0-4.1,0-6.1c-18.2,0-36.4,0-54.6,0c0,5.2,0,10.4,0,15.5
		c31.3,0,62.5,0,93.6,0c0-5.2,0-10.3,0-15.5C84.9,181.3,73,181.3,60.9,181.3z M7.1,146.9c-1.3,4.7-2.6,9.3-3.9,14
		c15.6,0,31.2,0,46.7,0c-1.3-4.7-2.6-9.4-3.9-14C33,146.9,20.1,146.9,7.1,146.9z M6.4,164.1c0.4,4.7,0.9,9.3,1.3,14
		c12.6,0,25.1,0,37.6,0c0.5-4.7,0.9-9.3,1.4-13.9c-4.1,0-8.2,0-12.3,0c0,1,0,2,0,3c0,1.9-1.3,3.2-3.2,3.2c-3.1,0-6.2,0-9.3,0
		c-1.9,0-3.2-1.3-3.2-3.2c0-1,0-2,0-3C14.6,164.1,10.6,164.1,6.4,164.1z M95.1,178.1c-0.4-3.6-1.1-7.1-1.3-10.6
		c-0.4-10.9-0.6-21.7-0.8-32.6c-0.2-6.6-0.3-13.1-0.5-19.7c0-0.3-0.1-0.6-0.1-0.9c-0.4,0.4-0.8,1-1.2,1.2c-0.6,0.2-0.6,0.5-0.7,1
		c-0.2,2.7-0.3,5.4-0.5,8.1c-0.3,4.9-0.6,9.9-0.9,14.8c-0.3,5-0.6,10.1-0.9,15.1c-0.2,4-0.4,7.9-0.7,11.9c-0.3,3.9-0.9,7.8-1.3,11.8
		C89.1,178.1,92.1,178.1,95.1,178.1z M67.2,112.4c7.4,0,14.8,0,22.2,0c0.8-3.1,1.5-6.2,2.3-9.3c-8.3,0-16.3,0-24.5,0
		C67.2,106.3,67.2,109.3,67.2,112.4z M64,103.2c-3.2,0-6.2,0-9.3,0c0,4.3,0,8.6,0,13c1-0.6,1.8-0.7,2.7-0.2c0.3,0.2,0.7,0.3,0.9,0.5
		c0.7,0.5,1.3,0.4,2,0c1.1-0.6,2.3-1.4,3.6-0.2C64,111.8,64,107.5,64,103.2z M21.9,167.1c3.1,0,6.2,0,9.3,0c0-1.1,0-2,0-3
		c-3.1,0-6.2,0-9.3,0C21.9,165.1,21.9,166.1,21.9,167.1z"/>
</g>
</svg>
