<?xml version="1.0" encoding="utf-8"?>
<!-- Generator: Adobe Illustrator 26.0.2, SVG Export Plug-In . SVG Version: 6.00 Build 0)  -->
<svg version="1.1" id="레이어_1" xmlns="http://www.w3.org/2000/svg" xmlns:xlink="http://www.w3.org/1999/xlink" x="0px"
	 y="0px" viewBox="0 0 100 200" style="enable-background:new 0 0 100 200;" xml:space="preserve">
<style type="text/css">
	.st0{fill:#999999;}
	.st1{fill:#FFFFFF;}
</style>
<g>
	<path class="st0" d="M83.5,25c-0.1,2,0,3.8-0.3,5.6c-0.5,3.9-4,6.9-7.9,6.9c-19.6,0-39.3,0-58.9,0c-4.1,0-7.8-3.4-8-7.5
		c-0.2-4.7-0.2-9.4,0-14.2c0.1-3.9,3.5-7.2,7.5-7.5c0.5,0,1-0.1,1.6-0.1c19,0,37.9,0,56.9,0c4.5,0,7.7,2.3,8.8,6.2
		c0.2,0.8,0.3,1.7,0.3,2.5c0.1,1.2,0,2.4,0,3.7c0.9,0,1.8,0,2.7,0.1c3,0.3,5.5,2.6,5.6,5.6c0.1,4.5,0.2,8.9,0,13.4
		c-0.1,3.6-2.8,6-6.5,6.1c-6.6,0-13.2,0-19.8,0c-5,0-10,0-14.9,0c-1.7,0-2.4,0.7-2.5,2.4c0,0.2,0,0.3,0,0.5
		c-0.3,2.6,0.2,4.7,2.3,6.7c2.9,2.8,4,6.6,4,10.7c0,7,0,13.9,0,20.9c0,4.5-3.5,7-6.8,6.7c-1.2-0.1-2.5,0-3.7,0
		c-3.5,0-6.2-2.7-6.2-6.3c0-7.2,0-14.5,0-21.7c0-4.8,1.9-8.8,5.5-12c0.6-0.5,0.8-1,0.8-1.7c-0.1-1.3,0-2.6,0-3.9
		c0-3.8,2.7-6.5,6.5-6.5c10.1,0,20.3,0,30.4,0c1.5,0,3.1,0,4.6,0c1.4,0,2.3-0.8,2.3-2.2c0-4,0-8.1,0-12.1c0-1.4-0.9-2.2-2.3-2.3
		C84.7,25,84.1,25,83.5,25z M45.9,33.3c9.5,0,18.9-0.1,28.4,0c3.3,0,5-2.2,4.9-4.8c-0.1-3.8,0-7.6,0-11.4c0-2.9-1.7-4.6-4.5-4.6
		c-19.2,0-38.3,0-57.5,0c-2.9,0-4.6,1.7-4.6,4.6c0,3.7,0.1,7.4,0,11.1c-0.1,2.8,1.5,5.1,5.1,5.1C27,33.2,36.4,33.3,45.9,33.3z
		 M45.9,56.8c-2.4,2-4,4.9-4.1,8c-0.1,7.5-0.1,15-0.1,22.6c0,1.4,0.8,2.1,2.2,2.2c1.3,0,2.5,0,3.8,0c1.5,0,2.3-0.8,2.3-2.3
		c0-7.2,0.1-14.4,0-21.6C49.9,62.1,48.5,59.2,45.9,56.8z"/>
</g>
<g>
	<path class="st1" d="M83.5,125c-0.1,2,0,3.8-0.3,5.6c-0.5,3.9-4,6.9-7.9,6.9c-19.6,0-39.3,0-58.9,0c-4.1,0-7.8-3.4-8-7.5
		c-0.2-4.7-0.2-9.4,0-14.2c0.1-3.9,3.5-7.2,7.5-7.5c0.5,0,1-0.1,1.6-0.1c19,0,37.9,0,56.9,0c4.5,0,7.7,2.3,8.8,6.2
		c0.2,0.8,0.3,1.7,0.3,2.5c0.1,1.2,0,2.4,0,3.7c0.9,0,1.8,0,2.7,0.1c3,0.3,5.5,2.6,5.6,5.6c0.1,4.5,0.2,8.9,0,13.4
		c-0.1,3.6-2.8,6-6.5,6.1c-6.6,0-13.2,0-19.8,0c-5,0-10,0-14.9,0c-1.7,0-2.4,0.7-2.5,2.4c0,0.2,0,0.3,0,0.5
		c-0.3,2.6,0.2,4.7,2.3,6.7c2.9,2.8,4,6.6,4,10.7c0,7,0,13.9,0,20.9c0,4.5-3.5,7-6.8,6.7c-1.2-0.1-2.5,0-3.7,0
		c-3.5,0-6.2-2.7-6.2-6.3c0-7.2,0-14.5,0-21.7c0-4.8,1.9-8.8,5.5-12c0.6-0.5,0.8-1,0.8-1.7c-0.1-1.3,0-2.6,0-3.9
		c0-3.8,2.7-6.5,6.5-6.5c10.1,0,20.3,0,30.4,0c1.5,0,3.1,0,4.6,0c1.4,0,2.3-0.8,2.3-2.2c0-4,0-8.1,0-12.1c0-1.4-0.9-2.2-2.3-2.3
		C84.7,125,84.1,125,83.5,125z M45.9,133.3c9.5,0,18.9-0.1,28.4,0c3.3,0,5-2.2,4.9-4.8c-0.1-3.8,0-7.6,0-11.4c0-2.9-1.7-4.6-4.5-4.6
		c-19.2,0-38.3,0-57.5,0c-2.9,0-4.6,1.7-4.6,4.6c0,3.7,0.1,7.4,0,11.1c-0.1,2.8,1.5,5.1,5.1,5.1C27,133.2,36.4,133.3,45.9,133.3z
		 M45.9,156.8c-2.4,2-4,4.9-4.1,8c-0.1,7.5-0.1,15-0.1,22.6c0,1.4,0.8,2.1,2.2,2.2c1.3,0,2.5,0,3.8,0c1.5,0,2.3-0.8,2.3-2.3
		c0-7.2,0.1-14.4,0-21.6C49.9,162.1,48.5,159.2,45.9,156.8z"/>
</g>
</svg>
