<?xml version="1.0" encoding="utf-8"?>
<!-- Generator: Adobe Illustrator 26.0.2, SVG Export Plug-In . SVG Version: 6.00 Build 0)  -->
<svg version="1.1" id="레이어_1" xmlns="http://www.w3.org/2000/svg" xmlns:xlink="http://www.w3.org/1999/xlink" x="0px"
	 y="0px" viewBox="0 0 100 200" style="enable-background:new 0 0 100 200;" xml:space="preserve">
<style type="text/css">
	.st0{fill:#999999;}
	.st1{fill:#FFFFFF;}
</style>
<g>
	<path class="st0" d="M14.1,74.9c0-0.3,0-0.6,0-0.9c0-9,0-18,0-27c0-0.6-0.2-1.1-0.7-1.5c-1.6-1.1-3.1-2.3-4.6-3.4
		c-1.3-1-1.3-2.1,0-3c13.3-9.8,26.7-19.5,40-29.3c0.9-0.6,1.6-0.6,2.5,0c3.3,2.4,6.6,4.8,9.9,7.3c0.4,0.3,0.8,0.6,1.3,0.9
		c0-1.9,0-3.7,0-5.4c-1.3-0.5-1.5-0.8-1.5-2.2c0-1.8,0-3.6,0-5.5c0-1.2,0.5-1.8,1.8-1.8c5,0,10.1,0,15.1,0c1.3,0,1.8,0.5,1.8,1.8
		c0,1.8,0,3.6,0,5.5c0,1.4-0.2,1.7-1.6,2.2c0,3.8,0,7.5,0,11.3c0,1.6,0,3.2,0,4.8c0,0.6,0.2,1,0.7,1.4c4.1,3,8.2,6,12.3,9
		c1.5,1.1,1.5,2.1,0,3.2c-1.5,1.2-3.1,2.3-4.6,3.5c-0.3,0.2-0.5,0.7-0.5,1c0,9.2,0,18.5,0,27.7c0,0.2,0,0.3,0.1,0.5
		c3.4,0.5,5.6,2.2,6.1,5.2c0.2,1,0.5,1.5,1.5,1.9c2.6,1.2,3.9,4.2,3.2,6.9c-0.7,2.9-3.1,4.9-6,4.9c-27.2,0-54.3,0-81.5,0
		c-3,0-5.4-2.1-6.1-5.1c-0.6-2.8,1-5.8,3.7-6.9c0.7-0.3,0.9-0.6,0.9-1.3C8.1,77.5,10.5,75.4,14.1,74.9z M82.8,90.6
		c0-0.3,0-0.5,0-0.7c0-14.3,0-28.6,0-43c0-0.6-0.3-0.9-0.7-1.3c-9-6.5-18-13.1-27-19.6c-1.7-1.2-3.4-2.5-5.1-3.7
		c-0.3,0.2-0.4,0.3-0.6,0.4C38.9,30.3,28.5,37.9,18,45.5c-0.6,0.4-0.8,0.9-0.8,1.6c0,14.1,0,28.3,0,42.4c0,0.3,0,0.7,0,1
		c11.5,0,22.9,0,34.4,0c0-0.5,0-0.8,0-1.2c0-11.4,0-22.8,0-34.2c0-1.6,0.5-2,2-2c7,0,13.9,0,20.9,0c1.6,0,2.1,0.5,2.1,2.1
		c0,11.4,0,22.8,0,34.2c0,0.4,0,0.8,0,1.2C78.7,90.6,80.7,90.6,82.8,90.6z M73.4,56.3c-6.3,0-12.5,0-18.7,0c0,11.5,0,22.8,0,34.3
		c6.2,0,12.4,0,18.7,0C73.4,79.1,73.4,67.7,73.4,56.3z M12.1,40.6c0.9,0.7,1.8,1.2,2.5,2c0.8,0.8,1.3,0.6,2.1,0
		c10.6-7.7,21.1-15.4,31.7-23.1c1.4-1,1.7-1,3.1,0c3.2,2.3,6.4,4.6,9.5,6.9c7.5,5.5,15.1,11,22.7,16.4c0.2,0.2,0.7,0.4,0.9,0.3
		c1.1-0.8,2.2-1.6,3.3-2.5c-0.3-0.3-0.5-0.4-0.8-0.6C75.1,31.2,63,22.4,50.9,13.5c-0.7-0.5-1.1-0.5-1.8,0
		c-10.5,7.7-20.9,15.3-31.4,23C15.8,37.9,14,39.2,12.1,40.6z M65.6,12.5c0,2.5,0,5,0,7.4c0,0.3,0.3,0.6,0.5,0.8
		c1.6,1.2,3.2,2.4,4.8,3.5c1.3,0.9,2.6,1.9,4,2.9c0-5,0-9.8,0-14.7C71.9,12.5,68.8,12.5,65.6,12.5z M86,90.6c1.6,0,3.2,0,4.7,0
		c1.8-0.1,3.1-1.5,3.1-3.1c0-1.7-1.4-3-3.1-3.1c-1.5-0.1-2.1-0.8-1.7-2.3c0.5-2.1-0.7-3.7-2.9-3.9C86,82.3,86,86.4,86,90.6z
		 M14,90.6c0-4.2,0-8.3,0-12.4c-2.2,0.2-3.4,1.8-2.9,3.9c0.3,1.5-0.2,2.2-1.7,2.3c-1.7,0.1-3.1,1.4-3.1,3.1c0,1.6,1.3,3,3,3.1
		C10.8,90.7,12.4,90.6,14,90.6z M76.5,6.3c-4.2,0-8.3,0-12.4,0c0,1.1,0,2,0,3c4.2,0,8.3,0,12.4,0C76.5,8.3,76.5,7.3,76.5,6.3z"/>
	<path class="st0" d="M23.4,65.6c0-3.5,0-7,0-10.4c0-1.5,0.5-2,2-2c6,0,12,0,18,0c1.5,0,2,0.5,2,2c0,7,0,14,0,21c0,1.5-0.5,2-2.1,2
		c-5.9,0-11.8,0-17.8,0c-1.6,0-2.1-0.5-2.1-2.1C23.4,72.5,23.4,69.1,23.4,65.6z M32.8,56.3c-2.1,0-4.1,0-6.1,0c0,2.6,0,5.2,0,7.7
		c2.1,0,4.1,0,6.1,0C32.8,61.4,32.8,58.9,32.8,56.3z M36,56.3c0,2.6,0,5.2,0,7.7c2.1,0,4.1,0,6.1,0c0-2.6,0-5.1,0-7.7
		C40.1,56.3,38.1,56.3,36,56.3z M32.8,75c0-2.6,0-5.2,0-7.7c-2.1,0-4.1,0-6.1,0c0,2.6,0,5.1,0,7.7C28.7,75,30.7,75,32.8,75z
		 M42.1,75c0-2.6,0-5.2,0-7.7c-2.1,0-4.1,0-6.1,0c0,2.6,0,5.2,0,7.7C38.1,75,40.1,75,42.1,75z"/>
	<path class="st0" d="M60.9,71.9c0,0.9-0.7,1.6-1.6,1.5c-0.9,0-1.5-0.7-1.5-1.6c0-0.9,0.7-1.6,1.6-1.5C60.3,70.3,61,71,60.9,71.9z"
		/>
</g>
<g>
	<path class="st1" d="M14.1,174.9c0-0.3,0-0.6,0-0.9c0-9,0-18,0-27c0-0.6-0.2-1.1-0.7-1.5c-1.6-1.1-3.1-2.3-4.6-3.4
		c-1.3-1-1.3-2.1,0-3c13.3-9.8,26.7-19.5,40-29.3c0.9-0.6,1.6-0.6,2.5,0c3.3,2.4,6.6,4.8,9.9,7.3c0.4,0.3,0.8,0.6,1.3,0.9
		c0-1.9,0-3.7,0-5.4c-1.3-0.5-1.5-0.8-1.5-2.2c0-1.8,0-3.6,0-5.5c0-1.2,0.5-1.8,1.8-1.8c5,0,10.1,0,15.1,0c1.3,0,1.8,0.5,1.8,1.8
		c0,1.8,0,3.6,0,5.5c0,1.4-0.2,1.7-1.6,2.2c0,3.8,0,7.5,0,11.3c0,1.6,0,3.2,0,4.8c0,0.6,0.2,1,0.7,1.4c4.1,3,8.2,6,12.3,9
		c1.5,1.1,1.5,2.1,0,3.2c-1.5,1.2-3.1,2.3-4.6,3.5c-0.3,0.2-0.5,0.7-0.5,1c0,9.2,0,18.5,0,27.7c0,0.2,0,0.3,0.1,0.5
		c3.4,0.5,5.6,2.2,6.1,5.2c0.2,1,0.5,1.5,1.5,1.9c2.6,1.2,3.9,4.2,3.2,6.9c-0.7,2.9-3.1,4.9-6,4.9c-27.2,0-54.3,0-81.5,0
		c-3,0-5.4-2.1-6.1-5.1c-0.6-2.8,1-5.8,3.7-6.9c0.7-0.3,0.9-0.6,0.9-1.3C8.1,177.5,10.5,175.4,14.1,174.9z M82.8,190.6
		c0-0.3,0-0.5,0-0.7c0-14.3,0-28.6,0-43c0-0.6-0.3-0.9-0.7-1.3c-9-6.5-18-13.1-27-19.6c-1.7-1.2-3.4-2.5-5.1-3.7
		c-0.3,0.2-0.4,0.3-0.6,0.4c-10.5,7.6-20.9,15.2-31.4,22.8c-0.6,0.4-0.8,0.9-0.8,1.6c0,14.1,0,28.3,0,42.4c0,0.3,0,0.7,0,1
		c11.5,0,22.9,0,34.4,0c0-0.5,0-0.8,0-1.2c0-11.4,0-22.8,0-34.2c0-1.6,0.5-2,2-2c7,0,13.9,0,20.9,0c1.6,0,2.1,0.5,2.1,2.1
		c0,11.4,0,22.8,0,34.2c0,0.4,0,0.8,0,1.2C78.7,190.6,80.7,190.6,82.8,190.6z M73.4,156.3c-6.3,0-12.5,0-18.7,0
		c0,11.5,0,22.8,0,34.3c6.2,0,12.4,0,18.7,0C73.4,179.1,73.4,167.7,73.4,156.3z M12.1,140.6c0.9,0.7,1.8,1.2,2.5,2
		c0.8,0.8,1.3,0.6,2.1,0c10.6-7.7,21.1-15.4,31.7-23.1c1.4-1,1.7-1,3.1,0c3.2,2.3,6.4,4.6,9.5,6.9c7.5,5.5,15.1,11,22.7,16.4
		c0.2,0.2,0.7,0.4,0.9,0.3c1.1-0.8,2.2-1.6,3.3-2.5c-0.3-0.3-0.5-0.4-0.8-0.6c-12.1-8.8-24.2-17.7-36.2-26.5c-0.7-0.5-1.1-0.5-1.8,0
		c-10.5,7.7-20.9,15.3-31.4,23C15.8,137.9,14,139.2,12.1,140.6z M65.6,112.5c0,2.5,0,5,0,7.4c0,0.3,0.3,0.6,0.5,0.8
		c1.6,1.2,3.2,2.4,4.8,3.5c1.3,0.9,2.6,1.9,4,2.9c0-5,0-9.8,0-14.7C71.9,112.5,68.8,112.5,65.6,112.5z M86,190.6c1.6,0,3.2,0,4.7,0
		c1.8-0.1,3.1-1.5,3.1-3.1c0-1.7-1.4-3-3.1-3.1c-1.5-0.1-2.1-0.8-1.7-2.3c0.5-2.1-0.7-3.7-2.9-3.9C86,182.3,86,186.4,86,190.6z
		 M14,190.6c0-4.2,0-8.3,0-12.4c-2.2,0.2-3.4,1.8-2.9,3.9c0.3,1.5-0.2,2.2-1.7,2.3c-1.7,0.1-3.1,1.4-3.1,3.1c0,1.6,1.3,3,3,3.1
		C10.8,190.7,12.4,190.6,14,190.6z M76.5,106.3c-4.2,0-8.3,0-12.4,0c0,1.1,0,2,0,3c4.2,0,8.3,0,12.4,0
		C76.5,108.3,76.5,107.3,76.5,106.3z"/>
	<path class="st1" d="M23.4,165.6c0-3.5,0-7,0-10.4c0-1.5,0.5-2,2-2c6,0,12,0,18,0c1.5,0,2,0.5,2,2c0,7,0,14,0,21c0,1.5-0.5,2-2.1,2
		c-5.9,0-11.8,0-17.8,0c-1.6,0-2.1-0.5-2.1-2.1C23.4,172.5,23.4,169.1,23.4,165.6z M32.8,156.3c-2.1,0-4.1,0-6.1,0
		c0,2.6,0,5.2,0,7.7c2.1,0,4.1,0,6.1,0C32.8,161.4,32.8,158.9,32.8,156.3z M36,156.3c0,2.6,0,5.2,0,7.7c2.1,0,4.1,0,6.1,0
		c0-2.6,0-5.1,0-7.7C40.1,156.3,38.1,156.3,36,156.3z M32.8,175c0-2.6,0-5.2,0-7.7c-2.1,0-4.1,0-6.1,0c0,2.6,0,5.1,0,7.7
		C28.7,175,30.7,175,32.8,175z M42.1,175c0-2.6,0-5.2,0-7.7c-2.1,0-4.1,0-6.1,0c0,2.6,0,5.2,0,7.7C38.1,175,40.1,175,42.1,175z"/>
	<path class="st1" d="M60.9,171.9c0,0.9-0.7,1.6-1.6,1.5c-0.9,0-1.5-0.7-1.5-1.6c0-0.9,0.7-1.6,1.6-1.5
		C60.3,170.3,61,171,60.9,171.9z"/>
</g>
</svg>
