<?xml version="1.0" encoding="utf-8"?>
<!-- Generator: Adobe Illustrator 26.0.2, SVG Export Plug-In . SVG Version: 6.00 Build 0)  -->
<svg version="1.1" id="레이어_1" xmlns="http://www.w3.org/2000/svg" xmlns:xlink="http://www.w3.org/1999/xlink" x="0px"
	 y="0px" viewBox="0 0 100 200" style="enable-background:new 0 0 100 200;" xml:space="preserve">
<style type="text/css">
	.st0{fill:#999999;}
	.st1{fill:#FFFFFF;}
</style>
<g>
	<path class="st0" d="M100,13.7c-0.3,1.4-0.5,2.7-0.8,4.1c-0.7,3-1.9,5.7-3.5,8.3c-1.7,2.6-3.4,5.2-5.2,7.8c-2.9,4.1-7.1,5.9-12.1,6
		c-1.5,0-3,0.2-4.6,0.3c-2.4,0.2-4.2,1.5-5.7,3.4c-8.5,10.5-17,21.1-25.5,31.6c-5.8,7.2-11.6,14.3-17.3,21.5
		c-1.4,1.8-3.2,2.7-5.4,3.2c-0.5,0-0.9,0-1.4,0c-1.4-0.5-3-0.9-4.2-1.7c-3.7-2.4-4.8-8.2-1.1-12C24.6,74.6,35.8,63,47.1,51.4
		c4.6-4.8,9.3-9.5,13.9-14.3c2.1-2.1,2.8-4.6,2.6-7.6c-0.2-2.8-0.6-5.6,0-8.3c0.6-2.8,1.9-5.3,4.1-7.2c3.4-2.9,6.7-6,10.4-8.5
		c4.6-3.2,10-4.3,15.6-4.1c3.5,0.2,5.8,2.6,6.1,6.3c0,0.3,0.1,0.7,0.2,1C100,10.4,100,12,100,13.7z M96.9,11.5c0-0.6,0-1.2,0-1.9
		c0-0.6-0.1-1.3-0.2-1.9c-0.2-1.9-1.4-3.2-3.4-3.2c-5-0.1-9.7,0.9-13.8,3.8c-3.6,2.6-7,5.6-10.3,8.6c-1.5,1.4-2.5,3.3-2.6,5.3
		c-0.2,2.6-0.1,5.2,0.1,7.8c0.2,3.6-0.9,6.6-3.3,9.1c-1.9,1.9-3.8,3.9-5.6,5.8C43.6,59.4,29.5,73.8,15.5,88.3
		c-0.5,0.5-1,1.2-1.2,1.8c-0.8,2.1,0.3,4.8,2.3,5.9c2.3,1.3,4.7,0.8,6.3-1.3c9.8-12.2,19.7-24.4,29.5-36.6c4.7-5.8,9.3-11.6,14-17.3
		c1.5-1.9,3.6-3.1,6-3.5c2.2-0.3,4.5-0.5,6.7-0.6c3.6-0.2,6.6-1.5,8.7-4.5c2-2.9,4.1-5.8,5.9-8.8C95.9,19.8,96.9,15.8,96.9,11.5z"/>
	<path class="st0" d="M0,16.2c0.3-0.5,0.5-1.1,0.9-1.5c1.4-1.7,3.7-1.6,5.4,0.1c4.9,4.9,9.9,9.8,14.8,14.8c1.1,1.1,1.5,1,2.5-0.3
		c-0.2-0.2-0.5-0.5-0.7-0.8c-5.3-5.3-10.6-10.6-15.9-15.9c-1.2-1.2-1.3-2-0.6-2.7C7.1,9.1,7.9,9.3,9,10.4
		c5.3,5.3,10.6,10.6,15.9,15.9c0.3,0.3,0.5,0.5,0.8,1c0.4-0.5,0.7-0.9,0.9-1.3c0.1-0.1,0.2-0.1,0.3-0.2c-0.3-0.2-0.7-0.3-0.9-0.6
		c-5.3-5.3-10.6-10.6-16-15.9C9,8.2,8.9,7.3,9.6,6.6c0.7-0.7,1.6-0.6,2.7,0.5c5.3,5.3,10.6,10.6,15.9,16c0.3,0.3,0.4,0.6,0.6,0.8
		c1.5-1.2,1.5-1.5,0.3-2.7c-4.9-4.9-9.8-9.8-14.7-14.7c-1.1-1.1-1.6-2.5-1-4c0.8-2.3,3.6-3,5.6-1.4c2.7,2.2,5.3,4.4,7.9,6.6
		c3.8,3.2,7.7,6.4,11.5,9.7c3.1,2.6,4.5,6,4.7,10c0.1,2.2,0,4.5,0.2,6.7c0.1,2.2,1.2,3.9,2.8,5.4c0.7,0.7,1.5,1.4,2.2,2
		c0.8,0.8,1,1.7,0.3,2.4c-0.6,0.6-1.5,0.6-2.3-0.1c-1.5-1.4-3-2.9-4.3-4.5c-1.5-1.9-1.9-4.2-1.9-6.6c0-2,0-4-0.1-6
		c-0.2-2.8-1.3-5.2-3.5-7.1C30.3,14.6,24,9.3,17.7,4c-0.2-0.1-0.3-0.3-0.5-0.4c-0.2-0.1-0.5-0.1-0.8-0.1c0,0.3,0,0.6,0.1,0.8
		c0.1,0.2,0.3,0.4,0.5,0.6c4.8,4.8,9.5,9.5,14.3,14.3c2.3,2.3,2.3,4.4,0,6.7c-2,2-3.9,3.9-5.9,5.9c-2.2,2.2-4.3,2.2-6.5,0
		c-4.8-4.8-9.6-9.6-14.4-14.4c-0.2-0.2-0.3-0.4-0.6-0.5c-0.2-0.1-0.5-0.1-0.7-0.1c0,0.3-0.1,0.6,0,0.8c0.1,0.3,0.3,0.5,0.5,0.7
		C9,24.3,14.2,30.5,19.4,36.6c2.2,2.6,5,3.7,8.3,3.8c2.4,0.1,4.8,0,7.1,0.2c2.4,0.2,4.4,1.3,6.1,3c1,1,2,2.1,2.9,3.2
		c0.7,0.8,0.7,1.6,0,2.3c-0.6,0.6-1.5,0.5-2.3-0.2c-0.7-0.7-1.4-1.5-2-2.2c-1.8-2.1-4.1-3.2-7-3.1c-2.1,0-4.3,0-6.4-0.1
		c-3.5-0.3-6.5-1.7-8.7-4.4c-5.4-6.3-10.7-12.7-16-19c-0.5-0.6-0.9-1.3-1.4-2C0,17.4,0,16.8,0,16.2z"/>
	<path class="st0" d="M90.6,99.8c-2.9-0.3-4.7-2.2-6.5-4.2C75.3,85.8,66.3,76,57.4,66.3c-0.2-0.2-0.4-0.4-0.6-0.7
		c-0.4-0.7-0.4-1.4,0.2-2c0.5-0.5,1.4-0.6,2,0c0.3,0.2,0.5,0.5,0.7,0.7c9.4,10.3,18.8,20.6,28.1,30.9c1.9,2,5.1,2,7,0
		c1.9-2,2-5.2,0-7c-10.4-9.5-20.8-19-31.3-28.5c-0.3-0.3-0.7-0.6-1-0.9c-0.6-0.7-0.6-1.5-0.1-2.1c0.5-0.6,1.4-0.7,2.1-0.1
		c1.2,1,2.3,2.1,3.5,3.1c9.5,8.7,19,17.4,28.6,26c2.6,2.4,3.3,5.3,2.2,8.5c-1.1,3.1-3.3,4.9-6.6,5.3c-0.2,0-0.4,0.1-0.5,0.2
		C91.4,99.8,91,99.8,90.6,99.8z"/>
</g>
<g>
	<path class="st1" d="M100,113.9c-0.3,1.4-0.5,2.7-0.8,4.1c-0.7,3-1.9,5.7-3.5,8.3c-1.7,2.6-3.4,5.2-5.2,7.8
		c-2.9,4.1-7.1,5.9-12.1,6c-1.5,0-3,0.2-4.6,0.3c-2.4,0.2-4.2,1.5-5.7,3.4c-8.5,10.5-17,21.1-25.5,31.6
		c-5.8,7.2-11.6,14.3-17.3,21.5c-1.4,1.8-3.2,2.7-5.4,3.2c-0.5,0-0.9,0-1.4,0c-1.4-0.5-3-0.9-4.2-1.7c-3.7-2.4-4.8-8.2-1.1-12
		c11.3-11.5,22.6-23.2,33.9-34.7c4.6-4.8,9.3-9.5,13.9-14.3c2.1-2.1,2.8-4.6,2.6-7.6c-0.2-2.8-0.6-5.6,0-8.3
		c0.6-2.8,1.9-5.3,4.1-7.2c3.4-2.9,6.7-6,10.4-8.5c4.6-3.2,10-4.3,15.6-4.1c3.5,0.2,5.8,2.6,6.1,6.3c0,0.3,0.1,0.7,0.2,1
		C100,110.6,100,112.2,100,113.9z M96.9,111.7c0-0.6,0-1.2,0-1.9c0-0.6-0.1-1.3-0.2-1.9c-0.2-1.9-1.4-3.2-3.4-3.2
		c-5-0.1-9.7,0.9-13.8,3.8c-3.6,2.6-7,5.6-10.3,8.6c-1.5,1.4-2.5,3.3-2.6,5.3c-0.2,2.6-0.1,5.2,0.1,7.8c0.2,3.6-0.9,6.6-3.3,9.1
		c-1.9,1.9-3.8,3.9-5.6,5.8c-14.1,14.5-28.1,28.9-42.2,43.4c-0.5,0.5-1,1.2-1.2,1.8c-0.8,2.1,0.3,4.8,2.3,5.9
		c2.3,1.3,4.7,0.8,6.3-1.3c9.8-12.2,19.7-24.4,29.5-36.6c4.7-5.8,9.3-11.6,14-17.3c1.5-1.9,3.6-3.1,6-3.5c2.2-0.3,4.5-0.5,6.7-0.6
		c3.6-0.2,6.6-1.5,8.7-4.5c2-2.9,4.1-5.8,5.9-8.8C95.9,120,96.9,116,96.9,111.7z"/>
	<path class="st1" d="M0,116.4c0.3-0.5,0.5-1.1,0.9-1.5c1.4-1.7,3.7-1.6,5.4,0.1c4.9,4.9,9.9,9.8,14.8,14.8c1.1,1.1,1.5,1,2.5-0.3
		c-0.2-0.2-0.5-0.5-0.7-0.8c-5.3-5.3-10.6-10.6-15.9-15.9c-1.2-1.2-1.3-2-0.6-2.7c0.8-0.7,1.5-0.6,2.7,0.6
		c5.3,5.3,10.6,10.6,15.9,15.9c0.3,0.3,0.5,0.5,0.8,1c0.4-0.5,0.7-0.9,0.9-1.3c0.1-0.1,0.2-0.1,0.3-0.2c-0.3-0.2-0.7-0.3-0.9-0.6
		c-5.3-5.3-10.6-10.6-16-15.9c-1.1-1.1-1.3-2-0.6-2.7c0.7-0.7,1.6-0.6,2.7,0.5c5.3,5.3,10.6,10.6,15.9,16c0.3,0.3,0.4,0.6,0.6,0.8
		c1.5-1.2,1.5-1.5,0.3-2.7c-4.9-4.9-9.8-9.8-14.7-14.7c-1.1-1.1-1.6-2.5-1-4c0.8-2.3,3.6-3,5.6-1.4c2.7,2.2,5.3,4.4,7.9,6.6
		c3.8,3.2,7.7,6.4,11.5,9.7c3.1,2.6,4.5,6,4.7,10c0.1,2.2,0,4.5,0.2,6.7c0.1,2.2,1.2,3.9,2.8,5.4c0.7,0.7,1.5,1.4,2.2,2
		c0.8,0.8,1,1.7,0.3,2.4c-0.6,0.6-1.5,0.6-2.3-0.1c-1.5-1.4-3-2.9-4.3-4.5c-1.5-1.9-1.9-4.2-1.9-6.6c0-2,0-4-0.1-6
		c-0.2-2.8-1.3-5.2-3.5-7.1c-6.3-5.3-12.5-10.6-18.8-15.8c-0.2-0.1-0.3-0.3-0.5-0.4c-0.2-0.1-0.5-0.1-0.8-0.1c0,0.3,0,0.6,0.1,0.8
		c0.1,0.2,0.3,0.4,0.5,0.6c4.8,4.8,9.5,9.5,14.3,14.3c2.3,2.3,2.3,4.4,0,6.7c-2,2-3.9,3.9-5.9,5.9c-2.2,2.2-4.3,2.2-6.5,0
		c-4.8-4.8-9.6-9.6-14.4-14.4c-0.2-0.2-0.3-0.4-0.6-0.5c-0.2-0.1-0.5-0.1-0.7-0.1c0,0.3-0.1,0.6,0,0.8c0.1,0.3,0.3,0.5,0.5,0.7
		c5.2,6.2,10.4,12.3,15.6,18.5c2.2,2.6,5,3.7,8.3,3.8c2.4,0.1,4.8,0,7.1,0.2c2.4,0.2,4.4,1.3,6.1,3c1,1,2,2.1,2.9,3.2
		c0.7,0.8,0.7,1.6,0,2.3c-0.6,0.6-1.5,0.5-2.3-0.2c-0.7-0.7-1.4-1.5-2-2.2c-1.8-2.1-4.1-3.2-7-3.1c-2.1,0-4.3,0-6.4-0.1
		c-3.5-0.3-6.5-1.7-8.7-4.4c-5.4-6.3-10.7-12.7-16-19c-0.5-0.6-0.9-1.3-1.4-2C0,117.6,0,117,0,116.4z"/>
	<path class="st1" d="M90.6,200c-2.9-0.3-4.7-2.2-6.5-4.2c-8.9-9.8-17.8-19.5-26.7-29.3c-0.2-0.2-0.4-0.4-0.6-0.7
		c-0.4-0.7-0.4-1.4,0.2-2c0.5-0.5,1.4-0.6,2,0c0.3,0.2,0.5,0.5,0.7,0.7c9.4,10.3,18.8,20.6,28.1,30.9c1.9,2,5.1,2,7,0
		c1.9-2,2-5.2,0-7c-10.4-9.5-20.8-19-31.3-28.5c-0.3-0.3-0.7-0.6-1-0.9c-0.6-0.7-0.6-1.5-0.1-2.1c0.5-0.6,1.4-0.7,2.1-0.1
		c1.2,1,2.3,2.1,3.5,3.1c9.5,8.7,19,17.4,28.6,26c2.6,2.4,3.3,5.3,2.2,8.5c-1.1,3.1-3.3,4.9-6.6,5.3c-0.2,0-0.4,0.1-0.5,0.2
		C91.4,200,91,200,90.6,200z"/>
</g>
</svg>
