<?xml version="1.0" encoding="utf-8"?>
<!-- Generator: Adobe Illustrator 26.0.2, SVG Export Plug-In . SVG Version: 6.00 Build 0)  -->
<svg version="1.1" id="레이어_1" xmlns="http://www.w3.org/2000/svg" xmlns:xlink="http://www.w3.org/1999/xlink" x="0px"
	 y="0px" viewBox="0 0 100 200" style="enable-background:new 0 0 100 200;" xml:space="preserve">
<style type="text/css">
	.st0{fill:#999999;}
	.st1{fill:#FFFFFF;}
</style>
<g>
	<path class="st0" d="M100,82.2c-0.2,0.4-0.3,0.8-0.5,1.2c-0.9,1.8-2.3,2.9-4.3,3c-0.8,0-1.5,0-2.4,0c0,1,0,1.9,0,2.8
		c0,2.4-1.6,4-4,4c-3.7,0-7.5,0-11.2,0c-2.7,0-4.3-1.5-4.3-4.3c0-2.2,0-4.4,0-6.5c0-0.2,0-0.4,0-0.7c-1.2,0.1-2.3,0.2-3.4,0.2
		c-3.2,0.2-6.5,0.4-9.7,0.6c-1.2,0.1-1.9-0.5-1.9-1.4c0-0.9,0.6-1.4,1.9-1.5c4.1-0.3,8.2-0.5,12.3-0.8c0.3,0,0.6-0.1,0.9-0.2
		c0-2.7,0-5.4,0-8.3c-0.8-0.1-1.7-0.2-2.5-0.3c-6.8-0.6-13.6-0.9-20.4-0.5c-3.3,0.2-6.5,0.5-9.8,0.6c-0.9,0.1-1.4,0.3-1.3,1.3
		c0.1,2,0.1,4.1,0,6.1c0,0.8,0.2,1.1,1,1.1c4.1,0.2,8.2,0.5,12.3,0.8c1.2,0.1,1.9,0.6,1.8,1.6c0,0.9-0.7,1.4-1.9,1.4
		c-4-0.2-7.9-0.5-11.9-0.7c-0.4,0-0.8,0-1.4,0c0,2.2,0,4.4,0,6.6c0,0.6,0,1.2-0.1,1.8c-0.3,1.7-1.8,3-3.5,3c-4.1,0-8.1,0-12.2,0
		c-2,0-3.6-1.7-3.6-3.6c0-1,0-2,0-3.2c-0.8,0-1.6,0-2.4,0c-2.8-0.1-4.8-2.2-4.8-5c0-1.8,0-3.6,0-5.4c0-0.3-0.3-0.7-0.6-0.8
		c-1.3-0.4-2.3-1.2-3.1-2.3c-2.5-3.5-5.1-6.9-7.6-10.4c-0.5-0.7-0.8-1.5-1.2-2.3c0-0.7,0-1.4,0-2.1c0.6-2,2.1-3.1,3.8-4.2
		c-0.4-0.7-0.9-1.4-1.2-2.1c-1-2.6-0.3-5.3,2.1-7c2-1.5,4-2.9,6-4.4c3-2.1,6.4-1.5,8.6,1.5c1,1.4,2.1,2.8,3.2,4.3
		c8.5-7.7,17.7-14.4,27.6-20.1c-1.5-2-2.9-4-4.3-5.9c-1.6-2.2-1.3-4.4,0.9-6c3-2.2,5.9-4.3,8.9-6.5c2.1-1.5,4.3-1.2,5.8,0.9
		c0.5,0.7,1,1.4,1.6,2.1c0.6-0.4,1.2-0.8,1.7-1.2c2.3-1.6,5.2-1.3,6.9,0.9c2.9,3.8,5.7,7.7,8.4,11.6c1.7,2.4,1,5.2-1.4,7
		c-0.5,0.4-1,0.8-1.6,1.2c0.6,0.8,1.1,1.5,1.6,2.3c1.4,2,1.1,4.1-0.9,5.6c-3.1,2.3-6.1,4.5-9.2,6.7c-2,1.4-4.1,1.1-5.6-0.9
		c-0.8-1-1.5-2-2.2-3c-0.7-1-1.5-2-2.3-3.1C51,44.4,43.1,50.2,34.6,55.6c0.7,0.1,1.3,0.1,1.7,0.2c1.8,0.5,2.9,2,2.9,4.1
		c0,2.1,0,4.1,0,6.2c0,0.4,0,0.7,0,1.2c11.4-1.2,22.7-1.2,34.1,0c0-0.5,0-0.8,0-1.2c0-2.4,0-4.8,0.1-7.1c0.1-1.9,1.7-3.2,3.7-3.2
		c4,0,7.9,0,11.9,0c2.1,0,3.7,1.6,3.8,3.8c0,1,0,1.9,0,3c0.8,0,1.5,0,2.1,0c2.4,0.1,4.1,1.3,4.9,3.6c0.1,0.2,0.1,0.4,0.2,0.5
		c0,1.5,0,3,0,4.5c-0.5,0.6-1.2,1.1-2,0.7c-0.9-0.4-1-1.1-0.9-2c0-0.7,0-1.4,0-2c-0.1-1.3-0.7-2.2-1.7-2.4c-0.8-0.1-1.7,0-2.5,0
		c0,6,0,12,0,18c0.5,0,1,0,1.5,0c2,0,2.7-0.8,2.7-2.8c0-1,0-2.1,0-3.1c0-0.4,0.2-1,0.5-1.3c0.7-0.7,1.5-0.5,2.4,0.5
		C100,78.6,100,80.4,100,82.2z M76.6,34.9c-0.2-0.3-0.3-0.6-0.4-0.9C70.4,26.2,64.7,18.3,59,10.4c-0.5-0.7-1.1-0.8-1.8-0.3
		c-2.9,2.2-5.9,4.3-8.8,6.4c-0.9,0.6-0.9,1-0.3,1.9c1.4,1.9,2.7,3.7,4.1,5.6c4.3,5.9,8.6,11.8,12.9,17.7c0.7,1,1,1,1.9,0.4
		c3-2.2,6-4.3,8.9-6.5C76.2,35.5,76.3,35.2,76.6,34.9z M36.2,74.4c0-4.8,0-9.6,0-14.4c0-1.2-0.2-1.4-1.4-1.4c-3.6,0-7.2,0-10.7,0
		c-1.1,0-1.4,0.3-1.4,1.4c0,9.6,0,19.3,0,28.9c0,1.1,0.3,1.4,1.4,1.4c3.5,0,7.1,0,10.6,0c1.3,0,1.5-0.2,1.5-1.5
		C36.2,84,36.2,79.2,36.2,74.4z M76.3,74.3c0,4.8,0,9.7,0,14.5c0,1.2,0.2,1.4,1.4,1.4c3.6,0,7.2,0,10.7,0c1.1,0,1.4-0.3,1.4-1.5
		c0-9.6,0-19.1,0-28.7c0-1.2-0.3-1.5-1.5-1.5c-3.5,0-7,0-10.5,0c-1.3,0-1.5,0.2-1.5,1.5C76.3,64.8,76.3,69.6,76.3,74.3z M56.7,35.3
		c-1.7-2.3-3.3-4.5-4.9-6.7c-10,5.7-19.1,12.4-27.6,20.1c1.7,2.3,3.3,4.5,4.9,6.7C39,49.7,48.2,43,56.7,35.3z M25.5,55.6
		c-0.1-0.3-0.2-0.4-0.2-0.4c-2.9-3.9-5.7-7.9-8.6-11.8c-1.1-1.4-2.7-1.7-4.2-0.6c-2,1.4-3.9,2.8-5.8,4.2c-1.7,1.3-1.9,2.8-0.7,4.6
		c1.5,2.1,3.1,4.2,4.6,6.3c1.3,1.8,2.7,3.7,4.1,5.6c1.5-1.3,3.4-0.9,5.1-1c0.3-1.8-0.4-3.7,0.8-5.3C21.7,55.5,23.5,55.6,25.5,55.6z
		 M19.7,65.4c-0.6,0-1.2,0-1.8,0c-1.6,0-2.4,0.7-2.5,2.4c0,4.4,0,8.8,0,13.3c0,1.3,0.7,2.2,1.8,2.3c0.8,0.1,1.6,0,2.5,0
		C19.7,77.4,19.7,71.4,19.7,65.4z M75.2,27.7c0.4-0.3,0.8-0.6,1.1-0.8c1.7-1.3,1.9-2.2,0.6-4c-1.2-1.7-2.4-3.4-3.7-5
		c-1.3-1.7-2.5-3.5-3.8-5.2c-1-1.4-2.1-1.5-3.4-0.6c-0.5,0.3-0.9,0.7-1.5,1.1C68.2,18,71.7,22.9,75.2,27.7z M12.3,72.2
		c0.1-0.1,0.2-0.1,0.2-0.2c0-1.7-0.1-3.4,0.1-5.1c0.1-0.8-0.1-1.4-0.6-2c-2-2.7-3.9-5.4-5.9-8.1c-0.2-0.2-0.4-0.5-0.6-0.7
		c-0.5,0.3-0.8,0.6-1.1,0.8c-1.7,1.2-1.8,2.2-0.6,3.9c2.5,3.4,4.9,6.8,7.4,10.2C11.5,71.5,11.9,71.9,12.3,72.2z"/>
</g>
<g>
	<path class="st1" d="M100,182.2c-0.2,0.4-0.3,0.8-0.5,1.2c-0.9,1.8-2.3,2.9-4.3,3c-0.8,0-1.5,0-2.4,0c0,1,0,1.9,0,2.8
		c0,2.4-1.6,4-4,4c-3.7,0-7.5,0-11.2,0c-2.7,0-4.3-1.5-4.3-4.3c0-2.2,0-4.4,0-6.5c0-0.2,0-0.4,0-0.7c-1.2,0.1-2.3,0.2-3.4,0.2
		c-3.2,0.2-6.5,0.4-9.7,0.6c-1.2,0.1-1.9-0.5-1.9-1.4c0-0.9,0.6-1.4,1.9-1.5c4.1-0.3,8.2-0.5,12.3-0.8c0.3,0,0.6-0.1,0.9-0.2
		c0-2.7,0-5.4,0-8.3c-0.8-0.1-1.7-0.2-2.5-0.3c-6.8-0.6-13.6-0.9-20.4-0.5c-3.3,0.2-6.5,0.5-9.8,0.6c-0.9,0.1-1.4,0.3-1.3,1.3
		c0.1,2,0.1,4.1,0,6.1c0,0.8,0.2,1.1,1,1.1c4.1,0.2,8.2,0.5,12.3,0.8c1.2,0.1,1.9,0.6,1.8,1.6c0,0.9-0.7,1.4-1.9,1.4
		c-4-0.2-7.9-0.5-11.9-0.7c-0.4,0-0.8,0-1.4,0c0,2.2,0,4.4,0,6.6c0,0.6,0,1.2-0.1,1.8c-0.3,1.7-1.8,3-3.5,3c-4.1,0-8.1,0-12.2,0
		c-2,0-3.6-1.7-3.6-3.6c0-1,0-2,0-3.2c-0.8,0-1.6,0-2.4,0c-2.8-0.1-4.8-2.2-4.8-5c0-1.8,0-3.6,0-5.4c0-0.3-0.3-0.7-0.6-0.8
		c-1.3-0.4-2.3-1.2-3.1-2.3c-2.5-3.5-5.1-6.9-7.6-10.4c-0.5-0.7-0.8-1.5-1.2-2.3c0-0.7,0-1.4,0-2.1c0.6-2,2.1-3.1,3.8-4.2
		c-0.4-0.7-0.9-1.4-1.2-2.1c-1-2.6-0.3-5.3,2.1-7c2-1.5,4-2.9,6-4.4c3-2.1,6.4-1.5,8.6,1.5c1,1.4,2.1,2.8,3.2,4.3
		c8.5-7.7,17.7-14.4,27.6-20.1c-1.5-2-2.9-4-4.3-5.9c-1.6-2.2-1.3-4.4,0.9-6c3-2.2,5.9-4.3,8.9-6.5c2.1-1.5,4.3-1.2,5.8,0.9
		c0.5,0.7,1,1.4,1.6,2.1c0.6-0.4,1.2-0.8,1.7-1.2c2.3-1.6,5.2-1.3,6.9,0.9c2.9,3.8,5.7,7.7,8.4,11.6c1.7,2.4,1,5.2-1.4,7
		c-0.5,0.4-1,0.8-1.6,1.2c0.6,0.8,1.1,1.5,1.6,2.3c1.4,2,1.1,4.1-0.9,5.6c-3.1,2.3-6.1,4.5-9.2,6.7c-2,1.4-4.1,1.1-5.6-0.9
		c-0.8-1-1.5-2-2.2-3c-0.7-1-1.5-2-2.3-3.1c-7.4,6.6-15.3,12.5-23.9,17.8c0.7,0.1,1.3,0.1,1.7,0.2c1.8,0.5,2.9,2,2.9,4.1
		c0,2.1,0,4.1,0,6.2c0,0.4,0,0.7,0,1.2c11.4-1.2,22.7-1.2,34.1,0c0-0.5,0-0.8,0-1.2c0-2.4,0-4.8,0.1-7.1c0.1-1.9,1.7-3.2,3.7-3.2
		c4,0,7.9,0,11.9,0c2.1,0,3.7,1.6,3.8,3.8c0,1,0,1.9,0,3c0.8,0,1.5,0,2.1,0c2.4,0.1,4.1,1.3,4.9,3.6c0.1,0.2,0.1,0.4,0.2,0.5
		c0,1.5,0,3,0,4.5c-0.5,0.6-1.2,1.1-2,0.7c-0.9-0.4-1-1.1-0.9-2c0-0.7,0-1.4,0-2c-0.1-1.3-0.7-2.2-1.7-2.4c-0.8-0.1-1.7,0-2.5,0
		c0,6,0,12,0,18c0.5,0,1,0,1.5,0c2,0,2.7-0.8,2.7-2.8c0-1,0-2.1,0-3.1c0-0.4,0.2-1,0.5-1.3c0.7-0.7,1.5-0.5,2.4,0.5
		C100,178.6,100,180.4,100,182.2z M76.6,134.9c-0.2-0.3-0.3-0.6-0.4-0.9c-5.7-7.9-11.4-15.7-17.1-23.6c-0.5-0.7-1.1-0.8-1.8-0.3
		c-2.9,2.2-5.9,4.3-8.8,6.4c-0.9,0.6-0.9,1-0.3,1.9c1.4,1.9,2.7,3.7,4.1,5.6c4.3,5.9,8.6,11.8,12.9,17.7c0.7,1,1,1,1.9,0.4
		c3-2.2,6-4.3,8.9-6.5C76.2,135.5,76.3,135.2,76.6,134.9z M36.2,174.4c0-4.8,0-9.6,0-14.4c0-1.2-0.2-1.4-1.4-1.4
		c-3.6,0-7.2,0-10.7,0c-1.1,0-1.4,0.3-1.4,1.4c0,9.6,0,19.3,0,28.9c0,1.1,0.3,1.4,1.4,1.4c3.5,0,7.1,0,10.6,0c1.3,0,1.5-0.2,1.5-1.5
		C36.2,184,36.2,179.2,36.2,174.4z M76.3,174.3c0,4.8,0,9.7,0,14.5c0,1.2,0.2,1.4,1.4,1.4c3.6,0,7.2,0,10.7,0c1.1,0,1.4-0.3,1.4-1.5
		c0-9.6,0-19.1,0-28.7c0-1.2-0.3-1.5-1.5-1.5c-3.5,0-7,0-10.5,0c-1.3,0-1.5,0.2-1.5,1.5C76.3,164.8,76.3,169.6,76.3,174.3z
		 M56.7,135.3c-1.7-2.3-3.3-4.5-4.9-6.7c-10,5.7-19.1,12.4-27.6,20.1c1.7,2.3,3.3,4.5,4.9,6.7C39,149.7,48.2,143,56.7,135.3z
		 M25.5,155.6c-0.1-0.3-0.2-0.4-0.2-0.4c-2.9-3.9-5.7-7.9-8.6-11.8c-1.1-1.4-2.7-1.7-4.2-0.6c-2,1.4-3.9,2.8-5.8,4.2
		c-1.7,1.3-1.9,2.8-0.7,4.6c1.5,2.1,3.1,4.2,4.6,6.3c1.3,1.8,2.7,3.7,4.1,5.6c1.5-1.3,3.4-0.9,5.1-1c0.3-1.8-0.4-3.7,0.8-5.3
		C21.7,155.5,23.5,155.6,25.5,155.6z M19.7,165.4c-0.6,0-1.2,0-1.8,0c-1.6,0-2.4,0.7-2.5,2.4c0,4.4,0,8.8,0,13.3
		c0,1.3,0.7,2.2,1.8,2.3c0.8,0.1,1.6,0,2.5,0C19.7,177.4,19.7,171.4,19.7,165.4z M75.2,127.7c0.4-0.3,0.8-0.6,1.1-0.8
		c1.7-1.3,1.9-2.2,0.6-4c-1.2-1.7-2.4-3.4-3.7-5c-1.3-1.7-2.5-3.5-3.8-5.2c-1-1.4-2.1-1.5-3.4-0.6c-0.5,0.3-0.9,0.7-1.5,1.1
		C68.2,118,71.7,122.9,75.2,127.7z M12.3,172.2c0.1-0.1,0.2-0.1,0.2-0.2c0-1.7-0.1-3.4,0.1-5.1c0.1-0.9-0.1-1.4-0.6-2
		c-2-2.7-3.9-5.4-5.9-8.1c-0.2-0.2-0.4-0.5-0.6-0.7c-0.5,0.3-0.8,0.6-1.1,0.8c-1.7,1.2-1.8,2.2-0.6,3.9c2.5,3.4,4.9,6.8,7.4,10.2
		C11.5,171.5,11.9,171.9,12.3,172.2z"/>
</g>
</svg>
