<?xml version="1.0" encoding="utf-8"?>
<!-- Generator: Adobe Illustrator 26.0.2, SVG Export Plug-In . SVG Version: 6.00 Build 0)  -->
<svg version="1.1" id="레이어_1" xmlns="http://www.w3.org/2000/svg" xmlns:xlink="http://www.w3.org/1999/xlink" x="0px"
	 y="0px" viewBox="0 0 50 50" style="enable-background:new 0 0 50 50;" xml:space="preserve">
<style type="text/css">
	.st0{fill:#381E1E;}
	.st1{clip-path:url(#SVGID_00000098907023893476757790000003671631945894864258_);fill:#FFE600;}
	.st2{clip-path:url(#SVGID_00000111893950134322391810000009126895919182988162_);fill:#EED823;}
	.st3{clip-path:url(#SVGID_00000117664081979955217170000000401203864587530117_);fill:#FFE600;}
	.st4{clip-path:url(#SVGID_00000145760299106556978870000007442796552675069342_);fill:#FFE600;}
</style>
<path class="st0" d="M25,2C11.2,2,0,10.9,0,21.8c0,7.1,4.7,13.3,11.9,16.8c-0.5,2-1.9,7.1-2.2,8.2c-0.3,1.4,0.5,1.3,1,1
	c0.4-0.3,6.9-4.7,9.6-6.5c1.5,0.2,3.1,0.3,4.6,0.3c13.8,0,25-8.8,25-19.8C50,10.9,38.8,2,25,2"/>
<g>
	<g>
		<g>
			<defs>
				<path id="SVGID_1_" d="M7.5,15.5c-1.5,0-1.5,2.7,0,2.7h2.6c0,0,0,7.2,0,8.9c0,1.2,2.7,1.3,2.7,0.1l0-8.7c0,0,0.9-0.2,2.6-0.2
					c1.6,0,1.6-2.7,0-2.7H7.5z"/>
			</defs>
			<clipPath id="SVGID_00000066482515349401196320000001097745960429832077_">
				<use xlink:href="#SVGID_1_"  style="overflow:visible;"/>
			</clipPath>
		</g>
		<g>
			<defs>
				<path id="SVGID_00000165236756873774469650000014765927256745789096_" d="M7.5,15.5c-1.5,0-1.5,2.7,0,2.7h2.6c0,0,0,7.2,0,8.9
					c0,1.2,2.7,1.3,2.7,0.1l0-8.7c0,0,0.9-0.2,2.6-0.2c1.6,0,1.6-2.7,0-2.7H7.5z"/>
			</defs>
			<use xlink:href="#SVGID_00000165236756873774469650000014765927256745789096_"  style="overflow:visible;fill:#EED823;"/>
			<clipPath id="SVGID_00000172439813475451879190000000109522831185255562_">
				<use xlink:href="#SVGID_00000165236756873774469650000014765927256745789096_"  style="overflow:visible;"/>
			</clipPath>
			
				<rect x="13.6" y="28" style="clip-path:url(#SVGID_00000172439813475451879190000000109522831185255562_);fill:#FFE600;" width="11.1" height="12.9"/>
		</g>
		<g>
			<defs>
				<path id="SVGID_00000100367447188324770310000007891741579995945879_" d="M7.5,15.5c-1.5,0-1.5,2.7,0,2.7h2.6c0,0,0,7.2,0,8.9
					c0,1.2,2.7,1.3,2.7,0.1l0-8.7c0,0,0.9-0.2,2.6-0.2c1.6,0,1.6-2.7,0-2.7H7.5z"/>
			</defs>
			<clipPath id="SVGID_00000070804898374126254400000005287493916305344173_">
				<use xlink:href="#SVGID_00000100367447188324770310000007891741579995945879_"  style="overflow:visible;"/>
			</clipPath>
		</g>
	</g>
	<g>
		<g>
			<defs>
				<path id="SVGID_00000178178304830252218160000017903538834499385779_" d="M20.3,18.8l1.5,4.5h-3L20.3,18.8z M18.6,16.7
					c-0.6,1.4-3,8.1-3.7,9.8c-0.6,1.3,1.8,2.3,2.4,1l0.5-1.8l4.8,0c0,0-0.2,0.1,0.5,1.7c0.5,1.4,3,0.4,2.5-0.9
					c-0.7-1.9-3.3-8.9-3.7-9.9c-0.2-0.5-1-0.8-1.7-0.8C19.5,15.9,18.9,16.2,18.6,16.7"/>
			</defs>
			<clipPath id="SVGID_00000142177125718458567260000015237672129301783973_">
				<use xlink:href="#SVGID_00000178178304830252218160000017903538834499385779_"  style="overflow:visible;"/>
			</clipPath>
		</g>
		<g>
			<defs>
				<path id="SVGID_00000114052737355043061200000015868151757956825529_" d="M20.3,18.8l1.5,4.5h-3L20.3,18.8z M18.6,16.7
					c-0.6,1.4-3,8.1-3.7,9.8c-0.6,1.3,1.8,2.3,2.4,1l0.5-1.8l4.8,0c0,0-0.2,0.1,0.5,1.7c0.5,1.4,3,0.4,2.5-0.9
					c-0.7-1.9-3.3-8.9-3.7-9.9c-0.2-0.5-1-0.8-1.7-0.8C19.5,15.9,18.9,16.2,18.6,16.7"/>
			</defs>
			<use xlink:href="#SVGID_00000114052737355043061200000015868151757956825529_"  style="overflow:visible;fill:#FFE600;"/>
			<clipPath id="SVGID_00000027568168395934310710000006155395566883706266_">
				<use xlink:href="#SVGID_00000114052737355043061200000015868151757956825529_"  style="overflow:visible;"/>
			</clipPath>
			
				<rect x="14.4" y="15.9" style="clip-path:url(#SVGID_00000027568168395934310710000006155395566883706266_);fill:#EED823;" width="11.7" height="13"/>
		</g>
		<g>
			<defs>
				<path id="SVGID_00000164477010278842414670000008366680868960269965_" d="M20.3,18.8l1.5,4.5h-3L20.3,18.8z M18.6,16.7
					c-0.6,1.4-3,8.1-3.7,9.8c-0.6,1.3,1.8,2.3,2.4,1l0.5-1.8l4.8,0c0,0-0.2,0.1,0.5,1.7c0.5,1.4,3,0.4,2.5-0.9
					c-0.7-1.9-3.3-8.9-3.7-9.9c-0.2-0.5-1-0.8-1.7-0.8C19.5,15.9,18.9,16.2,18.6,16.7"/>
			</defs>
			<clipPath id="SVGID_00000093895020230165455900000000994368197806198681_">
				<use xlink:href="#SVGID_00000164477010278842414670000008366680868960269965_"  style="overflow:visible;"/>
			</clipPath>
		</g>
	</g>
	<g>
		<g>
			<defs>
				<path id="SVGID_00000044156196877807727500000008082594855528922276_" d="M26.6,17.1c0,2.3,0,9.6,0,9.6s-0.2,1.5,1,1.5
					c1.2,0,4,0,5.2,0c1.2,0,1.2-2.6,0-2.6c-1.2,0-3.5,0-3.5,0s0-6.8,0-8.4c0-0.8-0.7-1.2-1.4-1.2C27.3,15.9,26.6,16.3,26.6,17.1"/>
			</defs>
			<clipPath id="SVGID_00000125594843533912338180000014285977741401584015_">
				<use xlink:href="#SVGID_00000044156196877807727500000008082594855528922276_"  style="overflow:visible;"/>
			</clipPath>
		</g>
		<g>
			<defs>
				<path id="SVGID_00000127012180188814182970000005349770881952163467_" d="M26.6,17.1c0,2.3,0,9.6,0,9.6s-0.2,1.5,1,1.5
					c1.2,0,4,0,5.2,0c1.2,0,1.2-2.6,0-2.6c-1.2,0-3.5,0-3.5,0s0-6.8,0-8.4c0-0.8-0.7-1.2-1.4-1.2C27.3,15.9,26.6,16.3,26.6,17.1"/>
			</defs>
			<use xlink:href="#SVGID_00000127012180188814182970000005349770881952163467_"  style="overflow:visible;fill:#EED823;"/>
			<clipPath id="SVGID_00000041295702723552694730000004846473554931050410_">
				<use xlink:href="#SVGID_00000127012180188814182970000005349770881952163467_"  style="overflow:visible;"/>
			</clipPath>
			
				<rect x="26.4" y="15.9" style="clip-path:url(#SVGID_00000041295702723552694730000004846473554931050410_);fill:#FFE600;" width="7.7" height="12.2"/>
		</g>
		<g>
			<defs>
				<path id="SVGID_00000128479713666762952490000002569038176532027323_" d="M26.6,17.1c0,2.3,0,9.6,0,9.6s-0.2,1.5,1,1.5
					c1.2,0,4,0,5.2,0c1.2,0,1.2-2.6,0-2.6c-1.2,0-3.5,0-3.5,0s0-6.8,0-8.4c0-0.8-0.7-1.2-1.4-1.2C27.3,15.9,26.6,16.3,26.6,17.1"/>
			</defs>
			<clipPath id="SVGID_00000036212641085717436960000010370570484244887212_">
				<use xlink:href="#SVGID_00000128479713666762952490000002569038176532027323_"  style="overflow:visible;"/>
			</clipPath>
		</g>
	</g>
	<g>
		<g>
			<defs>
				<path id="SVGID_00000183965701447095140880000013508713283051869102_" d="M34.5,16.8c0,1,0,10,0,10.6c0,1,2.7,1,2.7,0
					c0-1.2,0-3.5,0-3.5l0.8-0.6l3.4,4.7c0.7,0.9,2.9-0.7,2.2-1.7l-3.6-4.8c0,0,2.5-2.7,3.5-3.6c0.6-0.6-1.2-2.3-1.8-1.8
					c-0.6,0.5-4.4,4.4-4.4,4.4s0-2.4,0-3.8c0-0.5-0.6-0.8-1.3-0.8C35.2,15.9,34.5,16.2,34.5,16.8"/>
			</defs>
			<clipPath id="SVGID_00000149358674626607424450000003550349367322597044_">
				<use xlink:href="#SVGID_00000183965701447095140880000013508713283051869102_"  style="overflow:visible;"/>
			</clipPath>
		</g>
		<g>
			<defs>
				<path id="SVGID_00000109005187547023862280000003404599347353564803_" d="M34.5,16.8c0,1,0,10,0,10.6c0,1,2.7,1,2.7,0
					c0-1.2,0-3.5,0-3.5l0.8-0.6l3.4,4.7c0.7,0.9,2.9-0.7,2.2-1.7l-3.6-4.8c0,0,2.5-2.7,3.5-3.6c0.6-0.6-1.2-2.3-1.8-1.8
					c-0.6,0.5-4.4,4.4-4.4,4.4s0-2.4,0-3.8c0-0.5-0.6-0.8-1.3-0.8C35.2,15.9,34.5,16.2,34.5,16.8"/>
			</defs>
			<use xlink:href="#SVGID_00000109005187547023862280000003404599347353564803_"  style="overflow:visible;fill:#EED823;"/>
			<clipPath id="SVGID_00000048503639321391811150000017207165758639982990_">
				<use xlink:href="#SVGID_00000109005187547023862280000003404599347353564803_"  style="overflow:visible;"/>
			</clipPath>
			
				<rect x="34.5" y="15.5" style="clip-path:url(#SVGID_00000048503639321391811150000017207165758639982990_);fill:#FFE600;" width="9.8" height="13.4"/>
		</g>
		<g>
			<defs>
				<path id="SVGID_00000170247049716290504160000009528167975260175238_" d="M34.5,16.8c0,1,0,10,0,10.6c0,1,2.7,1,2.7,0
					c0-1.2,0-3.5,0-3.5l0.8-0.6l3.4,4.7c0.7,0.9,2.9-0.7,2.2-1.7l-3.6-4.8c0,0,2.5-2.7,3.5-3.6c0.6-0.6-1.2-2.3-1.8-1.8
					c-0.6,0.5-4.4,4.4-4.4,4.4s0-2.4,0-3.8c0-0.5-0.6-0.8-1.3-0.8C35.2,15.9,34.5,16.2,34.5,16.8"/>
			</defs>
			<clipPath id="SVGID_00000011731998712853143640000005222279531934981537_">
				<use xlink:href="#SVGID_00000170247049716290504160000009528167975260175238_"  style="overflow:visible;"/>
			</clipPath>
		</g>
	</g>
</g>
</svg>
