<?xml version="1.0" encoding="utf-8"?>
<!-- Generator: Adobe Illustrator 26.0.2, SVG Export Plug-In . SVG Version: 6.00 Build 0)  -->
<svg version="1.1" id="레이어_1" xmlns="http://www.w3.org/2000/svg" xmlns:xlink="http://www.w3.org/1999/xlink" x="0px"
	 y="0px" viewBox="0 0 1051.7 314.7" style="enable-background:new 0 0 1051.7 314.7;" xml:space="preserve">
<style type="text/css">
	.st0{fill:#8D1D22;}
	.st1{fill:#040000;}
	.st2{fill:#871D22;}
</style>
<g>
	<polyline class="st0" points="758.9,598.2 758.9,573.1 599.7,573.1 599.7,598.2 	"/>
	<polyline class="st0" points="599.7,688 599.7,714.1 758.9,714.1 758.9,688 	"/>
	<polyline class="st0" points="758.9,482.3 758.9,456.8 599.7,456.8 599.7,482.3 	"/>
	<path class="st1" d="M141.6,715.4c-17.6,0-33.2-3.2-46.9-9.7c-13.7-6.5-25.3-15.5-34.7-27.1c-9.5-11.6-16.7-25.3-21.7-41
		s-7.5-32.9-7.5-51.4c0-18.5,2.5-35.7,7.5-51.5c5-15.8,12.2-29.6,21.7-41.3c9.5-11.7,21-20.9,34.7-27.5s29.3-9.9,46.9-9.9
		c17.6,0,33.2,3.3,46.9,9.9c13.7,6.6,25.3,15.7,34.7,27.5c9.5,11.7,16.7,25.5,21.7,41.3c5,15.8,7.5,33,7.5,51.5
		c0,18.5-2.5,35.7-7.5,51.4s-12.2,29.4-21.7,41c-9.5,11.6-21,20.6-34.7,27.1C174.8,712.1,159.1,715.4,141.6,715.4z M141.6,689.7
		c13.1,0,24.7-2.6,34.6-7.8c9.9-5.2,18.2-12.5,24.9-21.7c6.7-9.2,11.7-20.2,15-32.9c3.3-12.7,5-26.5,5-41.4c0-14.9-1.7-28.7-5-41.4
		c-3.3-12.7-8.3-23.7-15-33.1c-6.7-9.3-15-16.6-24.9-21.9c-9.9-5.2-21.4-7.8-34.6-7.8c-13.1,0-24.7,2.6-34.6,7.8
		c-9.9,5.2-18.2,12.5-24.9,21.9c-6.7,9.3-11.7,20.4-15,33.1c-3.3,12.7-5,26.5-5,41.4c0,14.9,1.7,28.7,5,41.4
		c3.3,12.7,8.3,23.7,15,32.9c6.7,9.2,15,16.5,24.9,21.7C116.9,687,128.4,689.7,141.6,689.7z"/>
	<path class="st1" d="M374.6,459.3l96.5,195.7l10.7,25.7l-0.3-26.4v-195h27.7V712h-41.4L367.3,507l-10.7-24l0.3,26.4V712h-27.4
		V459.3H374.6z"/>
	<path class="st1" d="M847.7,654.3v-28.4l110.9-166.9H993v172h37.7v23.4H993V712h-28.4v-57.8H847.7z M956.6,502l-84.8,129.2v0.3
		h94.2V502.7l0.3-18.7L956.6,502z"/>
</g>
<g>
	<path d="M140.1,316.4c-21.3,0-40.4-4.1-57.2-12.2c-16.8-8.1-31-19.3-42.6-33.4c-11.6-14.1-20.4-30.8-26.4-50s-9-39.9-9-62
		c0-22.1,3-42.9,9-62.2c6-19.3,14.8-36.1,26.4-50.4c11.6-14.3,25.8-25.5,42.6-33.8C99.7,4.1,118.7,0,140.1,0
		c21.6,0,40.8,4.1,57.6,12.4c16.8,8.3,31,19.5,42.6,33.8c11.6,14.3,20.5,31.1,26.6,50.4c6.1,19.3,9.2,40.1,9.2,62.2
		c0,22.1-3.1,42.8-9.2,62c-6.1,19.2-15,35.9-26.6,50c-11.6,14.1-25.8,25.3-42.6,33.4C180.9,312.3,161.7,316.4,140.1,316.4z
		 M140.1,274c13.9,0,26-2.8,36.4-8.4c10.4-5.6,19.1-13.5,26.2-23.8c7.1-10.3,12.4-22.5,16-36.6c3.6-14.1,5.4-29.7,5.4-46.8
		c0-17.1-1.8-32.7-5.4-47c-3.6-14.3-8.9-26.5-16-36.6c-7.1-10.1-15.8-18.1-26.2-23.8c-10.4-5.7-22.5-8.6-36.4-8.6
		c-13.6,0-25.6,2.9-36,8.6c-10.4,5.7-19.1,13.7-26.2,23.8c-7.1,10.1-12.3,22.3-15.8,36.6c-3.5,14.3-5.2,29.9-5.2,47
		c0,17.1,1.7,32.7,5.2,46.8c3.5,14.1,8.7,26.3,15.8,36.6c7.1,10.3,15.8,18.2,26.2,23.8C114.5,271.2,126.5,274,140.1,274z"/>
	<path d="M486.9,219.6l11.2,34.4l-0.4-34.4V3.6h47.6v309.2h-66.4l-98.4-216l-11.2-34.4l0.4,34.4v216h-47.6V3.6h66.4L486.9,219.6z"/>
	<path class="st2" d="M606.1,137.4V179c9-0.1,10.6,0,27.5,0c11.5,0,1.5,0,22.5,0l0,0l146,0v-41.6"/>
	<path class="st2" d="M606.1,270.8v42h196v-42l-146,0"/>
	<path class="st2" d="M802.1,45.6v-42h-196v42"/>
	<path d="M819.7,245.2v-41.6L950.9,3.2h52.4v202h43.6v40h-43.6v67.6h-49.2v-67.6H819.7z M860.1,205.2v0.8h95.6V76.8l1.2-26.4
		l-13.6,26.4L860.1,205.2z"/>
</g>
</svg>
