<?xml version="1.0" encoding="utf-8"?>
<!-- Generator: Adobe Illustrator 26.0.2, SVG Export Plug-In . SVG Version: 6.00 Build 0)  -->
<svg version="1.1" id="레이어_1" xmlns="http://www.w3.org/2000/svg" xmlns:xlink="http://www.w3.org/1999/xlink" x="0px"
	 y="0px" viewBox="0 0 50 50" style="enable-background:new 0 0 50 50;" xml:space="preserve">
<style type="text/css">
	.st0{fill-rule:evenodd;clip-rule:evenodd;fill:#FFFFFF;}
</style>
<path class="st0" d="M23.5,20.4c0.7-0.1,1.4-0.2,2.1-0.4v3.3c0.3-0.1,0.6-0.1,0.8-0.2c0.7-0.1,1.4-0.1,2,0.1c0.6,0.2,1,0.7,1.1,1.3
	c0.1,0.4,0.1,0.7,0.1,1.1c0,0.7,0,1.4,0,2.1c0,0.7-0.2,1.3-0.8,1.7C28.5,29.8,28,30,27.6,30c-0.9,0.2-1.9,0.1-2.8,0
	c-0.4,0-0.8-0.1-1.1-0.2c-0.1,0-0.1-0.1-0.1-0.2c0-0.1,0-0.1,0-0.2c0-3,0-5.9,0-8.9C23.5,20.5,23.5,20.5,23.5,20.4 M25.6,28.3
	c0.4,0,0.8,0.1,1.2,0c0.4-0.1,0.6-0.3,0.7-0.8c0-0.7,0-1.3,0-2c0-0.5-0.2-0.6-0.6-0.7c-0.4-0.1-0.8,0.1-1.2,0.2c0,0-0.1,0.1-0.1,0.1
	c0,0.6,0,1.2,0,1.8V28.3z"/>
<path class="st0" d="M50,30h-0.4c-0.6,0-1.2,0-1.7,0c-0.1,0-0.2,0-0.3-0.1c-0.6-1-1.1-1.9-1.7-2.9c0,0,0-0.1-0.1-0.1V30
	c-0.1,0-0.1,0-0.2,0c-0.6,0-1.2,0-1.8,0c-0.1,0-0.2,0-0.2-0.2c0-0.7,0-1.3,0-2v-7.2c0-0.2,0-0.2,0.2-0.2c0.6-0.1,1.2-0.2,1.7-0.3
	c0,0,0.1,0,0.2,0v6.1c0,0,0,0,0,0c0.1-0.1,0.1-0.2,0.2-0.2c0.5-0.9,1.1-1.7,1.6-2.6c0.1-0.1,0.1-0.2,0.3-0.2c0.6,0,1.3,0,1.9,0H50
	c0,0.1-0.1,0.1-0.1,0.2c-0.6,1-1.3,2-1.9,3c-0.1,0.1-0.1,0.2,0,0.3c0.7,1.1,1.3,2.2,1.9,3.2C50,29.9,50,30,50,30"/>
<path class="st0" d="M22.7,28.1c0,0.1,0,0.1,0,0.1c0,0.5,0,1,0,1.4c0,0.1,0,0.1-0.1,0.2c-1,0.2-1.9,0.3-2.9,0.2
	c-0.5,0-0.9-0.1-1.3-0.3c-0.8-0.4-1.2-1-1.3-1.8c-0.1-0.3-0.1-0.6-0.1-0.9c0-0.5,0-1.1,0-1.6c0-0.6,0.2-1.1,0.6-1.6
	c0.3-0.4,0.8-0.6,1.3-0.7c0.9-0.2,1.7-0.2,2.5,0.1c0.9,0.3,1.4,0.9,1.5,1.8c0.1,0.7,0.1,1.4,0.1,2.1h-0.2c-1.2,0-2.3,0-3.5,0
	c-0.1,0-0.2,0-0.2,0.2c0,0.1,0,0.2,0,0.3c0.1,0.4,0.3,0.6,0.6,0.6c0.4,0,0.9,0,1.3,0C21.5,28.3,22,28.2,22.7,28.1
	C22.6,28.1,22.6,28.1,22.7,28.1 M19.9,25.8h0.4c0.5,0,0.5,0,0.4-0.5c0-0.3-0.2-0.5-0.5-0.6c-0.2,0-0.4,0-0.6,0
	c-0.3,0-0.4,0.2-0.5,0.5c0,0.2,0,0.3,0,0.5c0,0.1,0,0.1,0.1,0.1C19.4,25.8,19.6,25.8,19.9,25.8"/>
<path class="st0" d="M43.1,26.6c0,0.5,0,0.9-0.1,1.4c-0.2,1.1-0.8,1.7-1.8,2c-0.9,0.2-1.7,0.2-2.6-0.1C37.7,29.6,37.2,29,37,28
	C37,27.7,37,27.3,37,27c0-0.5,0-1,0-1.5c0.1-1.2,0.8-2,2-2.2c0.8-0.2,1.7-0.2,2.5,0.1c0.9,0.3,1.4,0.9,1.6,1.9
	C43.1,25.6,43.1,26.1,43.1,26.6 M41,26.6C41,26.6,41,26.6,41,26.6c0-0.3,0-0.7,0-1c0-0.3-0.2-0.6-0.5-0.7c-0.3-0.1-0.5-0.1-0.8,0
	c-0.3,0.1-0.6,0.3-0.6,0.7c0,0.7,0,1.4,0,2c0,0.3,0.2,0.6,0.5,0.7c0.2,0,0.4,0.1,0.6,0c0.5,0,0.7-0.3,0.8-0.8
	C41,27.2,41,26.9,41,26.6"/>
<path class="st0" d="M36.4,26.7c0,0.4,0,1-0.1,1.5c-0.2,1-0.8,1.6-1.8,1.9c-0.8,0.2-1.6,0.2-2.4,0c-1-0.3-1.5-0.9-1.7-1.9
	c0-0.2-0.1-0.5-0.1-0.7c0-0.6,0-1.1,0-1.7c0-0.7,0.2-1.4,0.8-1.9c0.4-0.3,0.8-0.5,1.3-0.6c0.8-0.1,1.6-0.1,2.4,0.2
	c0.9,0.3,1.4,1,1.5,1.9C36.4,25.7,36.4,26.1,36.4,26.7 M32.4,26.6C32.4,26.6,32.4,26.6,32.4,26.6c0,0.3,0,0.6,0,0.9c0,0,0,0.1,0,0.1
	c0,0.3,0.2,0.6,0.5,0.6c0.2,0.1,0.4,0.1,0.6,0.1c0.4,0,0.7-0.3,0.7-0.8c0-0.6,0-1.3,0-1.9c0-0.3-0.2-0.6-0.5-0.7
	c-0.3-0.1-0.5-0.1-0.8,0c-0.3,0.1-0.5,0.3-0.5,0.7C32.4,25.9,32.4,26.3,32.4,26.6"/>
<path class="st0" d="M8.5,29.7C8.1,29.8,7.7,30,7.3,30c-0.5,0.1-1,0.1-1.4,0c-0.7-0.2-1.2-0.7-1.3-1.5c-0.1-0.4-0.1-0.7,0-1.1
	c0.1-0.7,0.6-1.1,1.2-1.2c0.3-0.1,0.6-0.1,0.9-0.1c0.4,0,0.9,0,1.3,0c0.1,0,0.2,0,0.2-0.2c0-0.1,0-0.2,0-0.3c0-0.5-0.3-0.7-0.7-0.7
	c-0.7,0-1.4,0-2.1,0c-0.1,0-0.1,0-0.2,0c0-0.2,0-0.3,0-0.5c0-0.4,0.1-0.8,0.1-1.2c0,0,0.1-0.1,0.1-0.1c0.9,0,1.8,0,2.7,0
	c0.3,0,0.6,0.1,0.8,0.2c0.8,0.2,1.1,0.8,1.3,1.5c0,0.3,0.1,0.6,0.1,1c0,1.3,0,2.7,0,4c0,0.1,0,0.2-0.2,0.2c-0.5,0-1,0-1.4,0
	c-0.1,0-0.2-0.1-0.2-0.2C8.5,29.8,8.5,29.7,8.5,29.7 M7.6,27.6L7.6,27.6c-0.2,0-0.3,0-0.5,0c-0.3,0-0.4,0.2-0.4,0.5
	c0,0.4,0.2,0.5,0.5,0.5c0.3,0,0.6-0.1,0.9-0.2c0,0,0.1-0.1,0.1-0.1c0-0.2,0-0.3,0-0.5c0-0.1,0-0.1-0.1-0.1
	C7.9,27.6,7.7,27.6,7.6,27.6"/>
<path class="st0" d="M4.8,19.9V21c0,0.2,0,0.3,0,0.5c0,0.1,0,0.1-0.1,0.1c-0.3,0-0.6,0-0.8,0c-0.1,0-0.2,0-0.3,0
	c-0.2,0-0.3,0.2-0.3,0.4c0,0.4,0,0.7,0,1.1h1.6c0,0.3-0.1,0.5-0.1,0.8c0,0.3-0.1,0.5-0.1,0.8c0,0.1,0,0.2-0.2,0.2
	c-0.4,0-0.8,0-1.2,0V30H1.1c0-0.1,0-0.1,0-0.2c0-1.6,0-3.1,0-4.7C1,25,1,25,0.9,25c-0.3,0-0.6,0-0.9,0v-0.2c0-0.5,0-0.9,0-1.4
	c0-0.3,0-0.2,0.2-0.2c0.2,0,0.5,0,0.7,0c0.1,0,0.1,0,0.1-0.1c0-0.4,0-0.8,0-1.3c0-0.5,0.2-1,0.6-1.4c0.3-0.3,0.7-0.4,1.1-0.5
	C3.4,19.9,4.1,19.9,4.8,19.9"/>
<path class="st0" d="M16.3,25.1c-0.3-0.1-0.7-0.1-1-0.1c-0.5-0.1-1.1-0.1-1.6,0c-0.3,0.1-0.5,0.3-0.5,0.6c0,0.7,0,1.4,0,2.1
	c0,0.3,0.2,0.6,0.5,0.6c0.4,0.1,0.8,0.1,1.2,0c0.4,0,0.9-0.1,1.3-0.2c0,0,0.1,0,0.1,0c0,0,0,0.1,0,0.1c0,0.5,0,1,0,1.5
	c0,0.1,0,0.1-0.1,0.2c-0.8,0.2-1.6,0.3-2.4,0.2c-0.7,0-1.4-0.2-1.9-0.7c-0.5-0.4-0.7-1-0.8-1.6c-0.1-0.7-0.1-1.5,0-2.3
	c0-0.9,0.4-1.6,1.2-2c0.4-0.3,0.9-0.4,1.4-0.4c0.9-0.1,1.7,0,2.6,0.2c0,0,0.1,0.1,0.1,0.1C16.3,24,16.3,24.5,16.3,25.1"/>
</svg>
