<?xml version="1.0" encoding="utf-8"?>
<!-- Generator: Adobe Illustrator 26.0.2, SVG Export Plug-In . SVG Version: 6.00 Build 0)  -->
<svg version="1.1" id="레이어_1" xmlns="http://www.w3.org/2000/svg" xmlns:xlink="http://www.w3.org/1999/xlink" x="0px"
	 y="0px" viewBox="0 0 50 50" style="enable-background:new 0 0 50 50;" xml:space="preserve">
<style type="text/css">
	.st0{fill:#FFFFFF;}
</style>
<g>
	<polygon class="st0" points="6.7,20.4 6.7,25 3.5,20.4 0,20.4 0,29.6 3.5,29.6 3.5,25 6.7,29.6 10.1,29.6 10.1,20.4 	"/>
	<path class="st0" d="M47.2,26.2c1.2-0.3,2-1.2,2-2.7c0-2.4-1.9-3.2-4.4-3.2c-1.2,0-4.3,0-4.3,0v9.3H44v-2.9l2.1,2.9h4L47.2,26.2z
		 M45.5,24.3c-0.2,0.2-0.6,0.2-0.9,0.2h-0.7v-1.8h0.7c0.3,0,0.7,0.1,0.9,0.2c0.2,0.2,0.3,0.4,0.3,0.7C45.8,23.9,45.7,24.1,45.5,24.3
		z"/>
	<path class="st0" d="M32.1,20.4h7v2.4h-3.6v1.1h3.3v2.3h-3.3v1.1h3.7v2.4h-7.1V20.4z"/>
	<path class="st0" d="M18.4,20.4h-3.9l-3.6,9.3h3.8l0.3-1.2h2.9l0.3,1.2h3.8L18.4,20.4z M15.6,26.3l0.8-3.1h0.1l0.8,3.1H15.6z"/>
	<polygon class="st0" points="27.6,20.4 25.9,26 25.8,26 24.1,20.4 20.3,20.4 24.2,29.6 27.5,29.6 31.3,20.4 	"/>
</g>
</svg>
