<?xml version="1.0" encoding="utf-8"?>
<!-- Generator: Adobe Illustrator 26.0.2, SVG Export Plug-In . SVG Version: 6.00 Build 0)  -->
<svg version="1.1" id="레이어_1" xmlns="http://www.w3.org/2000/svg" xmlns:xlink="http://www.w3.org/1999/xlink" x="0px"
	 y="0px" viewBox="0 0 100 200" style="enable-background:new 0 0 100 200;" xml:space="preserve">
<style type="text/css">
	.st0{fill:#999999;}
	.st1{fill:#FFFFFF;}
</style>
<g>
	<path class="st0" d="M0,48.2c0.6-1.6,1-3.3,1.9-4.8c2.7-4.6,8.2-6.9,13.3-5.7c5.2,1.2,9.2,5.6,9.8,10.9c0.8,6.7-4,12.8-10.9,13.8
		C7.7,63.4,1.4,58.7,0.2,52.3c0-0.2-0.1-0.4-0.2-0.5C0,50.6,0,49.4,0,48.2z M12.5,58.3c4.6,0,8.3-3.7,8.3-8.3c0-4.6-3.7-8.3-8.3-8.3
		c-4.6,0-8.3,3.7-8.3,8.3C4.2,54.6,7.9,58.3,12.5,58.3z"/>
	<path class="st0" d="M100,51.8c-0.2,0.7-0.4,1.4-0.6,2.1c-1.8,5.5-7.1,9-13,8.6c-5.4-0.4-10.2-4.8-11.2-10.3
		c-1.1-6.7,3.4-13.3,9.9-14.4c7-1.2,13.4,3.2,14.7,10.1c0,0.2,0.1,0.3,0.2,0.4C100,49.4,100,50.6,100,51.8z M87.4,58.3
		c4.6,0.1,8.3-3.5,8.4-8.1c0.1-4.6-3.5-8.3-8.1-8.4c-4.6-0.1-8.3,3.5-8.4,8.1C79.1,54.4,82.7,58.2,87.4,58.3z"/>
	<path class="st0" d="M62.5,50c0,6.9-5.6,12.5-12.6,12.5c-6.9,0-12.4-5.6-12.4-12.6c0-6.9,5.6-12.4,12.6-12.4
		C57,37.5,62.5,43.1,62.5,50z M58.3,50.1c0.1-4.6-3.5-8.3-8.1-8.4c-4.6-0.1-8.3,3.5-8.4,8.1c-0.1,4.6,3.5,8.3,8.1,8.4
		C54.4,58.4,58.2,54.8,58.3,50.1z"/>
</g>
<g>
	<path class="st1" d="M0,148.2c0.6-1.6,1-3.3,1.9-4.8c2.7-4.6,8.2-6.9,13.3-5.7c5.2,1.2,9.2,5.6,9.8,10.9c0.8,6.7-4,12.8-10.9,13.8
		c-6.3,0.9-12.7-3.7-13.8-10.2c0-0.2-0.1-0.4-0.2-0.5C0,150.6,0,149.4,0,148.2z M12.5,158.3c4.6,0,8.3-3.7,8.3-8.3
		c0-4.6-3.7-8.3-8.3-8.3c-4.6,0-8.3,3.7-8.3,8.3C4.2,154.6,7.9,158.3,12.5,158.3z"/>
	<path class="st1" d="M100,151.8c-0.2,0.7-0.4,1.4-0.6,2.1c-1.8,5.5-7.1,9-13,8.6c-5.4-0.4-10.2-4.8-11.2-10.3
		c-1.1-6.7,3.4-13.3,9.9-14.4c7-1.2,13.4,3.2,14.7,10.1c0,0.2,0.1,0.3,0.2,0.4C100,149.4,100,150.6,100,151.8z M87.4,158.3
		c4.6,0.1,8.3-3.5,8.4-8.1c0.1-4.6-3.5-8.3-8.1-8.4c-4.6-0.1-8.3,3.5-8.4,8.1C79.1,154.4,82.7,158.2,87.4,158.3z"/>
	<path class="st1" d="M62.5,150c0,6.9-5.6,12.5-12.6,12.5c-6.9,0-12.4-5.6-12.4-12.6c0-6.9,5.6-12.4,12.6-12.4
		C57,137.5,62.5,143.1,62.5,150z M58.3,150.1c0.1-4.6-3.5-8.3-8.1-8.4c-4.6-0.1-8.3,3.5-8.4,8.1c-0.1,4.6,3.5,8.3,8.1,8.4
		C54.4,158.4,58.2,154.8,58.3,150.1z"/>
</g>
</svg>
