<?xml version="1.0" encoding="utf-8"?>
<!-- Generator: Adobe Illustrator 26.0.2, SVG Export Plug-In . SVG Version: 6.00 Build 0)  -->
<svg version="1.1" id="레이어_1" xmlns="http://www.w3.org/2000/svg" xmlns:xlink="http://www.w3.org/1999/xlink" x="0px"
	 y="0px" viewBox="0 0 100 200" style="enable-background:new 0 0 100 200;" xml:space="preserve">
<style type="text/css">
	.st0{fill:#999999;}
	.st1{fill:#FFFFFF;}
</style>
<g>
	<path class="st0" d="M31.9,37.7c-1.7-0.9-2.2-2.3-2.2-4.1c0.1-2.3,0-4.6,0-6.8c0-2.1,1.4-3.6,3.5-3.5c1.4,0.1,2-0.3,2.5-1.6
		c1.3-3.3,3.8-5.6,6.8-7.4c0.6-0.3,0.8-0.7,0.7-1.3c0-1.3,0-2.5,0-3.8c0.1-3.7,3.1-6.5,6.8-6.4c3.6,0.1,6.4,2.9,6.5,6.6
		c0,1.2,0,2.5,0,3.7c0,0.5,0.1,0.9,0.7,1.1c3.5,1.8,6,4.6,7.3,8.4c0.2,0.5,0.4,0.7,1,0.7c4,0.1,4.7,0.9,4.7,4.9c0,1.9-0.1,3.7,0,5.6
		c0.1,1.7-0.3,3.1-1.6,3.8c1.3,2,2.6,3.9,3.7,6c1,2,1.4,4.3,1.4,6.5c0,12,0,24.1,0,36.1c0,6.2-5,11.1-11.2,11.2
		c-8.4,0-16.8,0-25.2,0c-6.1,0-11.1-4.9-11.2-11c-0.1-11.8-0.1-23.7,0-35.5c0-4.8,1.8-9,5.1-12.5C31.5,38.1,31.7,38,31.9,37.7z
		 M28.9,82.2c0,1.3,0,2.4,0,3.5c0.1,5.3,3.7,8.9,8.9,8.9c8.1,0,16.1,0,24.2,0c5.2,0,8.9-3.5,8.9-8.8c0-11.8,0-23.7,0-35.5
		c0-4.7-1.9-8.6-5.7-11.5c-0.5-0.4-1.3-0.7-2-0.7c-8,0-16.1,0.1-24.1-0.1c-3.1-0.1-5.1,1-6.7,3.3c-0.2,0.3-0.5,0.6-0.7,0.9
		c-1.6,2.3-2.6,4.8-2.7,7.7c0.4,0,0.7,0,1,0c2.1,0,4.1,0,6.2,0c1,0,1.7,0.6,1.6,1.4c0,0.8-0.6,1.3-1.6,1.3c-0.3,0-0.7,0-1,0
		c-2.1,0-4.1,0-6.3,0c0,1.6,0,3.1,0,4.7c1.1,0,2.1,0,3.1,0c0.3,0,0.7,0,1,0c0.8,0.1,1.3,0.7,1.3,1.4c-0.1,0.8-0.5,1.3-1.3,1.3
		c-1.3,0-2.7,0-4.1,0c0,1.6,0,3.1,0,4.7c0.4,0,0.7,0,1,0c2.1,0,4.1,0,6.2,0c1,0,1.7,0.5,1.7,1.4c0,0.8-0.6,1.4-1.7,1.4
		c-1.7,0-3.4,0-5.1,0c-0.7,0-1.4,0-2.1,0c0,1.6,0,3.1,0,4.7c1.2,0,2.4,0,3.5,0c1.2,0,1.8,0.5,1.8,1.4c0,0.9-0.6,1.3-1.8,1.3
		c-1.2,0-2.4,0-3.6,0c0,1.6,0,3.1,0,4.7c0.4,0,0.7,0,1,0c2,0,3.9,0,5.9,0c0.2,0,0.5,0,0.7,0c0.8,0.1,1.4,0.7,1.3,1.4
		c-0.1,0.8-0.6,1.3-1.5,1.3C34,82.2,31.5,82.2,28.9,82.2z M50,35.2c5.4,0,10.9,0,16.3,0c0.9,0,1.3-0.3,1.3-1.2c-0.1-2.3,0-4.6,0-6.8
		c0-0.9-0.3-1.2-1.2-1.2c-10.9,0-21.9,0-32.8,0c-1,0-1.2,0.4-1.2,1.3c0,2.2,0,4.4,0,6.6c0,1.3,0.1,1.3,1.3,1.3
		C39.2,35.2,44.6,35.2,50,35.2z M38.1,23.1c8,0,15.8,0,23.8,0c-1.4-3.2-3.6-5.6-6.8-6.9c-0.9-0.4-1.3-1-1.3-1.9c0-1.5,0-3,0-4.5
		c0-2.5-1.6-4.2-3.9-4.2c-2.2,0-3.9,1.7-3.9,4.2c0,1.6,0,3.1,0,4.7c0,0.9-0.3,1.4-1.1,1.8c-1.1,0.5-2.1,1.2-3,1.9
		C40.3,19.3,39,21,38.1,23.1z"/>
</g>
<g>
	<path class="st1" d="M31.9,137.7c-1.7-0.9-2.2-2.3-2.2-4.1c0.1-2.3,0-4.6,0-6.8c0-2.1,1.4-3.6,3.5-3.5c1.4,0.1,2-0.3,2.5-1.6
		c1.3-3.3,3.8-5.6,6.8-7.4c0.6-0.3,0.8-0.7,0.7-1.3c0-1.3,0-2.5,0-3.8c0.1-3.7,3.1-6.5,6.8-6.4c3.6,0.1,6.4,2.9,6.5,6.6
		c0,1.2,0,2.5,0,3.7c0,0.5,0.1,0.9,0.7,1.1c3.5,1.8,6,4.6,7.3,8.4c0.2,0.5,0.4,0.7,1,0.7c4,0.1,4.7,0.9,4.7,4.9c0,1.9-0.1,3.7,0,5.6
		c0.1,1.7-0.3,3.1-1.6,3.8c1.3,2,2.6,3.9,3.7,6c1,2,1.4,4.3,1.4,6.5c0,12,0,24.1,0,36.1c0,6.2-5,11.1-11.2,11.2
		c-8.4,0-16.8,0-25.2,0c-6.1,0-11.1-4.9-11.2-11c-0.1-11.8-0.1-23.7,0-35.5c0-4.8,1.8-9,5.1-12.5C31.5,138.1,31.7,138,31.9,137.7z
		 M28.9,182.2c0,1.3,0,2.4,0,3.5c0.1,5.3,3.7,8.9,8.9,8.9c8.1,0,16.1,0,24.2,0c5.2,0,8.9-3.5,8.9-8.8c0-11.8,0-23.7,0-35.5
		c0-4.7-1.9-8.6-5.7-11.5c-0.5-0.4-1.3-0.7-2-0.7c-8,0-16.1,0.1-24.1-0.1c-3.1-0.1-5.1,1-6.7,3.3c-0.2,0.3-0.5,0.6-0.7,0.9
		c-1.6,2.3-2.6,4.8-2.7,7.7c0.4,0,0.7,0,1,0c2.1,0,4.1,0,6.2,0c1,0,1.7,0.6,1.6,1.4c0,0.8-0.6,1.3-1.6,1.3c-0.3,0-0.7,0-1,0
		c-2.1,0-4.1,0-6.3,0c0,1.6,0,3.1,0,4.7c1.1,0,2.1,0,3.1,0c0.3,0,0.7,0,1,0c0.8,0.1,1.3,0.7,1.3,1.4c-0.1,0.8-0.5,1.3-1.3,1.3
		c-1.3,0-2.7,0-4.1,0c0,1.6,0,3.1,0,4.7c0.4,0,0.7,0,1,0c2.1,0,4.1,0,6.2,0c1,0,1.7,0.5,1.7,1.4c0,0.8-0.6,1.4-1.7,1.4
		c-1.7,0-3.4,0-5.1,0c-0.7,0-1.4,0-2.1,0c0,1.6,0,3.1,0,4.7c1.2,0,2.4,0,3.5,0c1.2,0,1.8,0.5,1.8,1.4c0,0.9-0.6,1.3-1.8,1.3
		c-1.2,0-2.4,0-3.6,0c0,1.6,0,3.1,0,4.7c0.4,0,0.7,0,1,0c2,0,3.9,0,5.9,0c0.2,0,0.5,0,0.7,0c0.8,0.1,1.4,0.7,1.3,1.4
		c-0.1,0.8-0.6,1.3-1.5,1.3C34,182.2,31.5,182.2,28.9,182.2z M50,135.2c5.4,0,10.9,0,16.3,0c0.9,0,1.3-0.3,1.3-1.2
		c-0.1-2.3,0-4.6,0-6.8c0-0.9-0.3-1.2-1.2-1.2c-10.9,0-21.9,0-32.8,0c-1,0-1.2,0.4-1.2,1.3c0,2.2,0,4.4,0,6.6c0,1.3,0.1,1.3,1.3,1.3
		C39.2,135.2,44.6,135.2,50,135.2z M38.1,123.1c8,0,15.8,0,23.8,0c-1.4-3.2-3.6-5.6-6.8-6.9c-0.9-0.4-1.3-1-1.3-1.9c0-1.5,0-3,0-4.5
		c0-2.5-1.6-4.2-3.9-4.2c-2.2,0-3.9,1.7-3.9,4.2c0,1.6,0,3.1,0,4.7c0,0.9-0.3,1.4-1.1,1.8c-1.1,0.5-2.1,1.2-3,1.9
		C40.3,119.3,39,121,38.1,123.1z"/>
</g>
</svg>
