<?xml version="1.0" encoding="utf-8"?>
<!-- Generator: Adobe Illustrator 26.0.2, SVG Export Plug-In . SVG Version: 6.00 Build 0)  -->
<svg version="1.1" id="레이어_1" xmlns="http://www.w3.org/2000/svg" xmlns:xlink="http://www.w3.org/1999/xlink" x="0px"
	 y="0px" viewBox="0 0 100 200" style="enable-background:new 0 0 100 200;" xml:space="preserve">
<style type="text/css">
	.st0{fill:#999999;}
	.st1{fill:#FFFFFF;}
</style>
<g>
	<path class="st0" d="M46.9,81.3c-7.6-1-14.2-4.1-19.4-9.7c-8.2-8.9-10.8-19.4-7.2-30.9c3.6-11.5,11.6-18.6,23.3-21.3
		c8.7-1.9,16.8-0.2,24.1,4.8c0.4,0.3,0.9,0.8,1,1.2c0,0.5-0.3,1.2-0.6,1.6c-0.5,0.5-1.2,0.3-1.9-0.1c-2.2-1.2-4.4-2.6-6.7-3.5
		c-16.4-5.9-34.3,4.6-37.1,21.8c-2.5,14.9,7.1,29,21.9,32.2c5.5,1.2,11,0.7,16.3-1.4c0.2-0.1,0.4-0.2,0.5-0.2c1.1-0.4,2-0.1,2.4,0.8
		c0.4,0.9-0.1,1.8-1.2,2.2c-1.7,0.6-3.4,1.2-5.1,1.6c-1.3,0.3-2.6,0.5-4,0.8c4.2,0,8.4,0,12.6,0c0-0.4,0-0.8,0-1.1
		c0-11.3,0-22.5,0-33.8c0-2.2,0.3-2.5,2.4-2.5c0.2,0,0.4,0,0.7,0c0-1.8,0-3.6,0-5.4c0-0.7,0-1.5,0-2.2c0-1.2,0.6-1.7,1.7-1.7
		c0.4,0,0.8,0,1.4,0c0-0.4,0-0.8,0-1.2c0-8.3,0-16.5,0-24.8c0-0.8,0-1.6,0.9-2c0.8-0.4,1.4,0,2,0.5c3.9,3,7.9,5.9,11.8,8.8
		c0.6,0.5,0.9,1,0.9,1.8c0,5.2,0,10.5,0,15.7c0,0.4,0,0.7,0,1.1c0.5,0,1,0,1.4,0c1.1,0,1.7,0.6,1.7,1.7c0,2.3,0,4.7,0,7
		c0,0.2,0,0.4,0,0.7c0.6,0,1.1,0,1.6,0c0.9,0,1.4,0.6,1.5,1.5c0,0.2,0,0.5,0,0.7c0,15.2,0,30.4,0,45.6c0,1.8-0.4,2.2-2.2,2.2
		c-24.7,0-49.5,0-74.2,0c-5.2,0-10.1-3.6-11-9.1c-0.1-0.4-0.1-0.9-0.1-1.4c0-1.3,0.7-2,2.1-2c2.7,0,5.5,0,8.2,0c9.7,0,19.4,0,29.1,0
		C46,81.3,46.5,81.3,46.9,81.3z M90.6,90.6c0-11.5,0-22.9,0-34.3c-7.3,0-14.5,0-21.8,0c0,11.5,0,22.8,0,34.3
		C76.1,90.6,83.3,90.6,90.6,90.6z M9.6,84.5c0,0.2,0,0.4,0.1,0.6c0.9,3.4,3.9,5.6,7.6,5.6c15.8,0,31.6,0,47.3,0c0.3,0,0.6,0,0.9,0
		c0-2.1,0-4.1,0-6.2C46.9,84.5,28.2,84.5,9.6,84.5z M84.3,34.3c0-0.1,0.1-0.2,0.1-0.3c0-5.2,0-10.4,0-15.5c0-0.3-0.3-0.8-0.6-1
		c-2.7-2-5.4-4-8-6c-0.2-0.1-0.4-0.3-0.7-0.4c0,7.8,0,15.5,0,23.3C78.2,34.3,81.2,34.3,84.3,34.3z M90.6,53.1c0-2.1,0-4.1,0-6.1
		c-7.3,0-14.5,0-21.8,0c0,2.1,0,4.1,0,6.1C76.1,53.1,83.3,53.1,90.6,53.1z M71.9,43.7c5.2,0,10.4,0,15.5,0c0-2.1,0-4.1,0-6.1
		c-5.2,0-10.4,0-15.5,0C71.9,39.6,71.9,41.7,71.9,43.7z"/>
	<path class="st0" d="M9.4,53.7c0-22.9,13.3-39.4,32.2-43.5c8.9-1.9,17.6-0.9,25.8,3.1c0.4,0.2,1,0.5,1.1,0.9
		c0.2,0.5,0.1,1.2-0.1,1.7c-0.4,0.7-1.2,0.8-1.9,0.4c-1.5-0.6-2.9-1.3-4.4-1.8c-21-7.2-43.9,5.6-48.6,27.3
		c-2.8,12.7,0.4,23.9,9,33.6c0.2,0.2,0.4,0.4,0.6,0.7c0.7,0.8,0.7,1.7-0.1,2.3c-0.7,0.6-1.6,0.5-2.3-0.2c-1.3-1.5-2.6-3-3.8-4.6
		C11.9,66.6,9.4,58.7,9.4,53.7z"/>
	<path class="st0" d="M49.8,54.2c0,1.5-1.2,2.3-2.3,1.7c-0.3-0.2-0.5-0.4-0.7-0.6C41.3,49.8,35.9,44.4,30.5,39
		c-0.2-0.2-0.4-0.4-0.6-0.7c-0.4-0.7-0.3-1.3,0.2-1.9c0.5-0.6,1.2-0.6,1.9-0.3c0.3,0.1,0.5,0.3,0.7,0.6c5.5,5.5,11,10.9,16.4,16.4
		C49.4,53.5,49.7,53.9,49.8,54.2z"/>
	<path class="st0" d="M53.2,48.3c-0.4,0.5-0.7,1.1-1.1,1.3c-0.4,0.2-1,0-1.5-0.1c-0.2,0-0.4-0.3-0.6-0.5c-3.9-3.9-7.8-7.8-11.7-11.7
		c-0.2-0.2-0.6-0.6-0.6-0.8c0-0.6,0-1.2,0.3-1.7c0.4-0.6,1.1-0.6,1.8-0.3c0.3,0.1,0.5,0.4,0.8,0.6c3.9,3.9,7.8,7.8,11.7,11.7
		C52.5,47.2,52.8,47.7,53.2,48.3z"/>
	<path class="st0" d="M42.1,59.4c-0.6-0.3-1.1-0.5-1.4-0.8c-4-4-8-8-12-12c-0.8-0.8-0.8-1.7-0.2-2.3c0.7-0.7,1.6-0.7,2.4,0.1
		c4,4,8,8,12,12c0.5,0.5,0.8,1.2,0.4,1.8C43.1,58.7,42.6,59,42.1,59.4z"/>
</g>
<g>
	<path class="st1" d="M46.9,181.3c-7.6-1-14.2-4.1-19.4-9.7c-8.2-8.9-10.8-19.4-7.2-30.9c3.6-11.5,11.6-18.6,23.3-21.3
		c8.7-1.9,16.8-0.2,24.1,4.8c0.4,0.3,0.9,0.8,1,1.2c0,0.5-0.3,1.2-0.6,1.6c-0.5,0.5-1.2,0.3-1.9-0.1c-2.2-1.2-4.4-2.6-6.7-3.5
		c-16.4-5.9-34.3,4.6-37.1,21.8c-2.5,14.9,7.1,29,21.9,32.2c5.5,1.2,11,0.7,16.3-1.4c0.2-0.1,0.4-0.2,0.5-0.2c1.1-0.4,2-0.1,2.4,0.8
		c0.4,0.9-0.1,1.8-1.2,2.2c-1.7,0.6-3.4,1.2-5.1,1.6c-1.3,0.3-2.6,0.5-4,0.8c4.2,0,8.4,0,12.6,0c0-0.4,0-0.8,0-1.1
		c0-11.3,0-22.5,0-33.8c0-2.2,0.3-2.5,2.4-2.5c0.2,0,0.4,0,0.7,0c0-1.8,0-3.6,0-5.4c0-0.7,0-1.5,0-2.2c0-1.2,0.6-1.7,1.7-1.7
		c0.4,0,0.8,0,1.4,0c0-0.4,0-0.8,0-1.2c0-8.3,0-16.5,0-24.8c0-0.8,0-1.6,0.9-2c0.8-0.4,1.4,0,2,0.5c3.9,3,7.9,5.9,11.8,8.8
		c0.6,0.5,0.9,1,0.9,1.8c0,5.2,0,10.5,0,15.7c0,0.4,0,0.7,0,1.1c0.5,0,1,0,1.4,0c1.1,0,1.7,0.6,1.7,1.7c0,2.3,0,4.7,0,7
		c0,0.2,0,0.4,0,0.7c0.6,0,1.1,0,1.6,0c0.9,0,1.4,0.6,1.5,1.5c0,0.2,0,0.5,0,0.7c0,15.2,0,30.4,0,45.6c0,1.8-0.4,2.2-2.2,2.2
		c-24.7,0-49.5,0-74.2,0c-5.2,0-10.1-3.6-11-9.1c-0.1-0.4-0.1-0.9-0.1-1.4c0-1.3,0.7-2,2.1-2c2.7,0,5.5,0,8.2,0c9.7,0,19.4,0,29.1,0
		C46,181.3,46.5,181.3,46.9,181.3z M90.6,190.6c0-11.5,0-22.9,0-34.3c-7.3,0-14.5,0-21.8,0c0,11.5,0,22.8,0,34.3
		C76.1,190.6,83.3,190.6,90.6,190.6z M9.6,184.5c0,0.2,0,0.4,0.1,0.6c0.9,3.4,3.9,5.6,7.6,5.6c15.8,0,31.6,0,47.3,0
		c0.3,0,0.6,0,0.9,0c0-2.1,0-4.1,0-6.2C46.9,184.5,28.2,184.5,9.6,184.5z M84.3,134.3c0-0.1,0.1-0.2,0.1-0.3c0-5.2,0-10.4,0-15.5
		c0-0.3-0.3-0.8-0.6-1c-2.7-2-5.4-4-8-6c-0.2-0.1-0.4-0.3-0.7-0.4c0,7.8,0,15.5,0,23.3C78.2,134.3,81.2,134.3,84.3,134.3z
		 M90.6,153.1c0-2.1,0-4.1,0-6.1c-7.3,0-14.5,0-21.8,0c0,2.1,0,4.1,0,6.1C76.1,153.1,83.3,153.1,90.6,153.1z M71.9,143.7
		c5.2,0,10.4,0,15.5,0c0-2.1,0-4.1,0-6.1c-5.2,0-10.4,0-15.5,0C71.9,139.6,71.9,141.7,71.9,143.7z"/>
	<path class="st1" d="M9.4,153.7c0-22.9,13.3-39.4,32.2-43.5c8.9-1.9,17.6-0.9,25.8,3.1c0.4,0.2,1,0.5,1.1,0.9
		c0.2,0.5,0.1,1.2-0.1,1.7c-0.4,0.7-1.2,0.8-1.9,0.4c-1.5-0.6-2.9-1.3-4.4-1.8c-21-7.2-43.9,5.6-48.6,27.3
		c-2.8,12.7,0.4,23.9,9,33.6c0.2,0.2,0.4,0.4,0.6,0.7c0.7,0.8,0.7,1.7-0.1,2.3c-0.7,0.6-1.6,0.5-2.3-0.2c-1.3-1.5-2.6-3-3.8-4.6
		C11.9,166.6,9.4,158.7,9.4,153.7z"/>
	<path class="st1" d="M49.8,154.2c0,1.5-1.2,2.3-2.3,1.7c-0.3-0.2-0.5-0.4-0.7-0.6c-5.4-5.4-10.9-10.9-16.3-16.3
		c-0.2-0.2-0.4-0.4-0.6-0.7c-0.4-0.7-0.3-1.3,0.2-1.9c0.5-0.6,1.2-0.6,1.9-0.3c0.3,0.1,0.5,0.3,0.7,0.6c5.5,5.5,11,10.9,16.4,16.4
		C49.4,153.5,49.7,153.9,49.8,154.2z"/>
	<path class="st1" d="M53.2,148.3c-0.4,0.5-0.7,1.1-1.1,1.3c-0.4,0.2-1,0-1.5-0.1c-0.2,0-0.4-0.3-0.6-0.5
		c-3.9-3.9-7.8-7.8-11.7-11.7c-0.2-0.2-0.6-0.6-0.6-0.8c0-0.6,0-1.2,0.3-1.7c0.4-0.6,1.1-0.6,1.8-0.3c0.3,0.1,0.5,0.4,0.8,0.6
		c3.9,3.9,7.8,7.8,11.7,11.7C52.5,147.2,52.8,147.7,53.2,148.3z"/>
	<path class="st1" d="M42.1,159.4c-0.6-0.3-1.1-0.5-1.4-0.8c-4-4-8-8-12-12c-0.8-0.8-0.8-1.7-0.2-2.3c0.7-0.7,1.6-0.7,2.4,0.1
		c4,4,8,8,12,12c0.5,0.5,0.8,1.2,0.4,1.8C43.1,158.7,42.6,159,42.1,159.4z"/>
</g>
</svg>
