<?xml version="1.0" encoding="utf-8"?>
<!-- Generator: Adobe Illustrator 26.0.2, SVG Export Plug-In . SVG Version: 6.00 Build 0)  -->
<svg version="1.1" id="레이어_1" xmlns="http://www.w3.org/2000/svg" xmlns:xlink="http://www.w3.org/1999/xlink" x="0px"
	 y="0px" viewBox="0 0 100 200" style="enable-background:new 0 0 100 200;" xml:space="preserve">
<style type="text/css">
	.st0{fill:#999999;}
	.st1{fill:#FFFFFF;}
</style>
<g>
	<path class="st0" d="M68.9,100c-0.8-0.6-1.1-1.4-1.4-2.3c-2.6-9.4-5.2-18.8-7.8-28.1c0-0.2-0.1-0.4-0.2-0.6
		c-1.7,0.9-3.4,1.5-5.2,1.3c-0.8-0.1-1.6-0.2-2.3-0.4c-1.1-0.3-1.6-1.3-1.4-2.3c0.3-1,1.3-1.7,2.4-1.4c2.3,0.6,4.2-0.1,5.9-1.7
		c3.4-3.3,5.2-7.2,5.2-12c0-2.3-1.4-4.1-3.5-4.9c-2.1-0.7-4.5,0-5.8,1.8c-1,1.4-2,2.9-3,4.3c-0.8,1.1-1.9,1.4-2.9,0.6
		c-3.9-3.1-7.7-6.4-10.3-10.9c-1.2-2.2-2.2-4.5-3.2-6.8C31.9,28.5,26,23,17.7,20.1c-0.7-0.2-1-0.1-1.3,0.5
		c-2.4,4.5-3.8,9.3-3.8,14.5c0,5.1-1.2,9.9-4.1,14.2c-1.1,1.5-2.4,2.9-3.7,4.3c-0.2,0.2-0.5,0.3-0.8,0.6c1.3,0.6,2.3,1.1,3.3,1.6
		c0.6,0.3,1.3,0.7,1.9,0.9c2.1,1,3.2,2.5,3,5c-0.2,2.3-0.1,4.5-1,6.7c-0.1,0.2-0.2,0.6-0.1,0.8c0.8,1.4,0.7,3.3,1.9,4.6
		c0.4,0.4,0.6,1.2,0.6,1.8c0.1,1.3-0.1,2.7,0.2,4c0.5,2.8,2.8,4.5,5.7,4.5c8.1,0,15.7-2.1,22.6-6.2c0.2-0.1,0.4-0.3,0.7-0.4
		c1.1-0.6,2.2-0.3,2.7,0.6c0.6,1,0.4,2.2-0.7,2.8c-2.3,1.3-4.7,2.4-7,3.6c-0.4,0.2-0.8,0.3-1.3,0.5c1.3,2.8,2.6,5.5,3.8,8.3
		c0.5,1.1,1.1,2.3,1.6,3.4c0.8,1.7,0.6,2.3-0.9,3.4c-0.5,0-0.9,0-1.4,0c-0.5-0.6-1.1-1.2-1.4-1.9c-1.9-3.9-3.7-7.9-5.5-11.9
		c-0.2,0-0.4,0.1-0.6,0.1c-4,1.1-8,1.6-12.1,1.7c-3.6,0.1-6.6-1.4-8.6-4.4c-1.3-1.9-1.7-4-1.6-6.3c0-0.5,0-1.1-0.2-1.6
		c-0.6-1.7-1.5-3.3-2-5c-0.3-1.1-0.3-2.4,0-3.4c0.6-1.9,0.7-3.7,0.7-5.7c0-0.8-0.3-1.2-0.9-1.5c-1.5-0.7-3-1.5-4.5-2.2
		c-1.3-0.6-2.3-1.5-2.9-2.9c0-0.6,0-1.2,0-1.8c0.5-0.7,0.8-1.5,1.4-2c4.8-4,6.9-9.2,7.2-15.3c0.1-2.4,0.2-4.8,0.6-7.1
		C11.9,14.8,23.5,3.4,37.6,0.8c1.6-0.3,3.2-0.5,4.8-0.8c2.1,0,4.3,0,6.4,0c0.2,0.1,0.5,0.1,0.7,0.2c3,0.6,6,1,8.9,1.9
		c3,1,5.9,2.5,9.1,3.8c0,0,0.2-0.3,0.4-0.5c2.3-2.3,5-3.8,8.1-4.7c1-0.3,1.9-0.5,2.9-0.7c1.5,0,3,0,4.5,0c0.1,0.1,0.3,0.2,0.4,0.2
		c7.6,1.1,13.7,6.6,15.6,14.1c0.2,0.8,0.4,1.7,0.6,2.5c0,1.4,0,2.7,0,4.1c-0.3,1.1-0.5,2.2-0.8,3.3c-1.8,5.9-5.7,10-11.4,12.3
		c-0.8,0.3-1,0.7-0.9,1.5c0.5,4.7,0,9.4-1.2,14c-0.1,0.3-0.1,0.5-0.2,0.7c-0.4,1.1-1.4,1.6-2.4,1.3c-1.1-0.3-1.6-1.3-1.4-2.4
		c0.5-2.7,1.1-5.4,1.3-8.2c0.6-8.4-1.6-16-6.4-22.9C70.8,12,62.8,6.5,52.6,4.6c-11.8-2.1-22.4,0.7-31.1,9.2
		c-0.8,0.8-1.5,1.6-2.2,2.5c1.8,0.9,3.6,1.6,5.2,2.5c7.2,4,12.1,9.9,15,17.6c2,5.5,5.5,9.8,10.2,13.4c0.6-0.8,1.1-1.6,1.7-2.5
		c3.3-4.7,9.7-5.3,13.8-1.5c2.1,2,3,4.4,2.9,7.3c-0.2,4.7-1.7,8.8-4.7,12.4c-0.2,0.2-0.3,0.7-0.2,1c0.6,2.3,1.2,4.5,1.9,6.9
		c1-0.6,1.9-1.1,2.7-1.8c2-1.7,4-3.5,5.9-5.3c0.6-0.6,1.2-1,2.1-0.8c1.6,0.4,2,2.1,0.9,3.4c-2.3,2.6-4.9,4.9-7.9,6.8
		c-0.6,0.4-1.3,0.9-2,1.2c-0.6,0.3-0.6,0.7-0.5,1.3c1.7,6.2,3.5,12.4,5.2,18.7c0.5,1.7,0.3,2.2-1.1,3.1C69.9,100,69.4,100,68.9,100z
		 M86.2,32.8c5.3-1.4,9.7-7.5,9.9-13.7c0.2-6.5-4.2-12.4-10.4-14.5c-6-1.9-12.4,0.5-15,3.8C78.7,14.7,84,22.8,86.2,32.8z"/>
	<path class="st0" d="M82.2,60.3c0,1.1-0.9,2-2,2c-1.1,0-2-1-1.9-2c0-1,0.9-1.9,1.9-1.9C81.3,58.3,82.2,59.2,82.2,60.3z"/>
	<path class="st0" d="M24.1,46.9c-2.1-0.1-4-0.8-5.5-2.2c-0.9-0.9-1-2-0.3-2.9c0.7-0.8,1.9-0.9,2.9-0.1c2,1.6,3.8,1.6,5.8,0
		c1-0.8,2.1-0.8,2.9,0.1c0.8,0.9,0.7,2-0.3,2.9C28.1,46.1,26.2,46.8,24.1,46.9z"/>
	<path class="st0" d="M55,62.9c-1.1,0-2-0.9-1.9-2c0-1.1,0.9-1.9,1.9-1.9c1.1,0,2,0.9,2,1.9C57,61.9,56,62.9,55,62.9z"/>
</g>
<g>
	<path class="st1" d="M68.9,200c-0.8-0.6-1.1-1.4-1.4-2.3c-2.6-9.4-5.2-18.8-7.8-28.1c0-0.2-0.1-0.4-0.2-0.6
		c-1.7,0.9-3.4,1.5-5.2,1.3c-0.8-0.1-1.6-0.2-2.3-0.4c-1.1-0.3-1.6-1.3-1.4-2.3c0.3-1,1.3-1.7,2.4-1.4c2.3,0.6,4.2-0.1,5.9-1.7
		c3.4-3.3,5.2-7.2,5.2-12c0-2.3-1.4-4.1-3.5-4.9c-2.1-0.7-4.5,0-5.8,1.8c-1,1.4-2,2.9-3,4.3c-0.8,1.1-1.9,1.4-2.9,0.6
		c-3.9-3.1-7.7-6.4-10.3-10.9c-1.2-2.2-2.2-4.5-3.2-6.8c-3.5-8.1-9.3-13.6-17.6-16.6c-0.7-0.2-1-0.1-1.3,0.5
		c-2.4,4.5-3.8,9.3-3.8,14.5c0,5.1-1.2,9.9-4.1,14.2c-1.1,1.5-2.4,2.9-3.7,4.3c-0.2,0.2-0.5,0.3-0.8,0.6c1.3,0.6,2.3,1.1,3.3,1.6
		c0.6,0.3,1.3,0.7,1.9,0.9c2.1,1,3.2,2.5,3,5c-0.2,2.3-0.1,4.5-1,6.7c-0.1,0.2-0.2,0.6-0.1,0.8c0.8,1.4,0.7,3.3,1.9,4.6
		c0.4,0.4,0.6,1.2,0.6,1.8c0.1,1.3-0.1,2.7,0.2,4c0.5,2.8,2.8,4.5,5.7,4.5c8.1,0,15.7-2.1,22.6-6.2c0.2-0.1,0.4-0.3,0.7-0.4
		c1.1-0.6,2.2-0.3,2.7,0.6c0.6,1,0.4,2.2-0.7,2.8c-2.3,1.3-4.7,2.4-7,3.6c-0.4,0.2-0.8,0.3-1.3,0.5c1.3,2.8,2.6,5.5,3.8,8.3
		c0.5,1.1,1.1,2.3,1.6,3.4c0.8,1.7,0.6,2.3-0.9,3.4c-0.5,0-0.9,0-1.4,0c-0.5-0.6-1.1-1.2-1.4-1.9c-1.9-3.9-3.7-7.9-5.5-11.9
		c-0.2,0-0.4,0.1-0.6,0.1c-4,1.1-8,1.6-12.1,1.7c-3.6,0.1-6.6-1.4-8.6-4.4c-1.3-1.9-1.7-4-1.6-6.3c0-0.5,0-1.1-0.2-1.6
		c-0.6-1.7-1.5-3.3-2-5c-0.3-1.1-0.3-2.4,0-3.4c0.6-1.9,0.7-3.7,0.7-5.7c0-0.8-0.3-1.2-0.9-1.5c-1.5-0.7-3-1.5-4.5-2.2
		c-1.3-0.6-2.3-1.5-2.9-2.9c0-0.6,0-1.2,0-1.8c0.5-0.7,0.8-1.5,1.4-2c4.8-4,6.9-9.2,7.2-15.3c0.1-2.4,0.2-4.8,0.6-7.1
		c2.7-14.1,14.2-25.5,28.4-28.1c1.6-0.3,3.2-0.5,4.8-0.8c2.1,0,4.3,0,6.4,0c0.2,0.1,0.5,0.1,0.7,0.2c3,0.6,6,1,8.9,1.9
		c3,1,5.9,2.5,9.1,3.8c0,0,0.2-0.3,0.4-0.5c2.3-2.3,5-3.8,8.1-4.7c1-0.3,1.9-0.5,2.9-0.7c1.5,0,3,0,4.5,0c0.1,0.1,0.3,0.2,0.4,0.2
		c7.6,1.1,13.7,6.6,15.6,14.1c0.2,0.8,0.4,1.7,0.6,2.5c0,1.4,0,2.7,0,4.1c-0.3,1.1-0.5,2.2-0.8,3.3c-1.8,5.9-5.7,10-11.4,12.3
		c-0.8,0.3-1,0.7-0.9,1.5c0.5,4.7,0,9.4-1.2,14c-0.1,0.3-0.1,0.5-0.2,0.7c-0.4,1.1-1.4,1.6-2.4,1.3c-1.1-0.3-1.6-1.3-1.4-2.4
		c0.5-2.7,1.1-5.4,1.3-8.2c0.6-8.4-1.6-16-6.4-22.9c-5.9-8.5-13.9-14-24.1-15.9c-11.8-2.1-22.4,0.7-31.1,9.2
		c-0.8,0.8-1.5,1.6-2.2,2.5c1.8,0.9,3.6,1.6,5.2,2.5c7.2,4,12.1,9.9,15,17.6c2,5.5,5.5,9.8,10.2,13.4c0.6-0.8,1.1-1.6,1.7-2.5
		c3.3-4.7,9.7-5.3,13.8-1.5c2.1,2,3,4.4,2.9,7.3c-0.2,4.7-1.7,8.8-4.7,12.4c-0.2,0.2-0.3,0.7-0.2,1c0.6,2.3,1.2,4.5,1.9,6.9
		c1-0.6,1.9-1.1,2.7-1.8c2-1.7,4-3.5,5.9-5.3c0.6-0.6,1.2-1,2.1-0.8c1.6,0.4,2,2.1,0.9,3.4c-2.3,2.6-4.9,4.9-7.9,6.8
		c-0.6,0.4-1.3,0.9-2,1.2c-0.6,0.3-0.6,0.7-0.5,1.3c1.7,6.2,3.5,12.4,5.2,18.7c0.5,1.7,0.3,2.2-1.1,3.1C69.9,200,69.4,200,68.9,200z
		 M86.2,132.8c5.3-1.4,9.7-7.5,9.9-13.7c0.2-6.5-4.2-12.4-10.4-14.5c-6-1.9-12.4,0.5-15,3.8C78.7,114.7,84,122.8,86.2,132.8z"/>
	<path class="st1" d="M82.2,160.3c0,1.1-0.9,2-2,2c-1.1,0-2-1-1.9-2c0-1,0.9-1.9,1.9-1.9C81.3,158.3,82.2,159.2,82.2,160.3z"/>
	<path class="st1" d="M24.1,146.9c-2.1-0.1-4-0.8-5.5-2.2c-0.9-0.9-1-2-0.3-2.9c0.7-0.8,1.9-0.9,2.9-0.1c2,1.6,3.8,1.6,5.8,0
		c1-0.8,2.1-0.8,2.9,0.1c0.8,0.9,0.7,2-0.3,2.9C28.1,146.1,26.2,146.8,24.1,146.9z"/>
	<path class="st1" d="M55,162.9c-1.1,0-2-0.9-1.9-2c0-1.1,0.9-1.9,1.9-1.9c1.1,0,2,0.9,2,1.9C57,161.9,56,162.9,55,162.9z"/>
</g>
</svg>
