<?xml version="1.0" encoding="utf-8"?>
<!-- Generator: Adobe Illustrator 26.0.2, SVG Export Plug-In . SVG Version: 6.00 Build 0)  -->
<svg version="1.1" id="레이어_1" xmlns="http://www.w3.org/2000/svg" xmlns:xlink="http://www.w3.org/1999/xlink" x="0px"
	 y="0px" viewBox="0 0 100 200" style="enable-background:new 0 0 100 200;" xml:space="preserve">
<style type="text/css">
	.st0{fill:#999999;}
	.st1{fill:#FFFFFF;}
</style>
<g>
	<path class="st0" d="M23.4,50c0-13.4,0-26.8,0-40.2c0-4.9,3.3-8.2,8.2-8.2c12.3,0,24.5,0,36.8,0c4.8,0,8.1,3.3,8.1,8.1
		c0,26.9,0,53.8,0,80.8c0,4.7-3.4,8-8.1,8c-12.3,0-24.7,0-37,0c-4.7,0-8.1-3.4-8.1-8C23.4,76.9,23.4,63.4,23.4,50z M26.6,49.9
		c0,13.3,0,26.6,0,39.9c0,3.6,1.8,5.4,5.5,5.4c11.9,0,23.9,0,35.8,0c3.8,0,5.6-1.8,5.6-5.6c0-23.3,0-46.5,0-69.8c0-3.5,0-6.9,0-10.4
		c0-2.9-2-4.9-4.9-4.9c-1.3,0-2.6,0-3.9,0c-0.6,0-0.8,0.1-1,0.8c-0.3,1.9-0.8,3.8-1.1,5.6c-0.2,1-0.8,1.4-1.8,1.4
		c-7.2,0-14.3,0-21.5,0c-1,0-1.6-0.5-1.8-1.4c-0.4-1.8-0.8-3.7-1.1-5.5c-0.1-0.7-0.4-0.9-1.1-0.9c-1.1,0-2.2,0-3.3,0
		c-3.6,0-5.4,1.9-5.4,5.4C26.6,23.4,26.6,36.6,26.6,49.9z M39.5,4.7c0.3,1.4,0.5,2.8,0.8,4.1C40.3,9,40.7,9.3,41,9.3
		c6,0,12,0,18.1,0c0.2,0,0.6-0.2,0.7-0.4c0.3-1.4,0.6-2.8,0.9-4.3C53.5,4.7,46.5,4.7,39.5,4.7z"/>
	<path class="st0" d="M35.8,92.2c-1.5,0-2.9,0-4.4,0c-1.1,0-1.8-0.6-1.8-1.6c0-0.9,0.7-1.5,1.8-1.5c3,0,6,0,9,0
		c1.1,0,1.8,0.6,1.8,1.6c0,0.9-0.7,1.5-1.8,1.5C38.9,92.2,37.4,92.2,35.8,92.2z"/>
	<path class="st0" d="M46.1,92.2c-1.6,0-2.3-0.4-2.3-1.5c0-1.1,0.7-1.6,2.3-1.6c1.6,0,2.3,0.4,2.3,1.5
		C48.5,91.7,47.8,92.2,46.1,92.2z"/>
</g>
<g>
	<path class="st1" d="M23.4,150c0-13.4,0-26.8,0-40.2c0-4.9,3.3-8.2,8.2-8.2c12.3,0,24.5,0,36.8,0c4.8,0,8.1,3.3,8.1,8.1
		c0,26.9,0,53.8,0,80.8c0,4.7-3.4,8-8.1,8c-12.3,0-24.7,0-37,0c-4.7,0-8.1-3.4-8.1-8C23.4,176.9,23.4,163.4,23.4,150z M26.6,149.9
		c0,13.3,0,26.6,0,39.9c0,3.6,1.8,5.4,5.5,5.4c11.9,0,23.9,0,35.8,0c3.8,0,5.6-1.8,5.6-5.6c0-23.3,0-46.5,0-69.8c0-3.5,0-6.9,0-10.4
		c0-2.9-2-4.9-4.9-4.9c-1.3,0-2.6,0-3.9,0c-0.6,0-0.8,0.1-1,0.8c-0.3,1.9-0.8,3.8-1.1,5.6c-0.2,1-0.8,1.4-1.8,1.4
		c-7.2,0-14.3,0-21.5,0c-1,0-1.6-0.5-1.8-1.4c-0.4-1.8-0.8-3.7-1.1-5.5c-0.1-0.7-0.4-0.9-1.1-0.9c-1.1,0-2.2,0-3.3,0
		c-3.6,0-5.4,1.9-5.4,5.4C26.6,123.4,26.6,136.6,26.6,149.9z M39.5,104.7c0.3,1.4,0.5,2.8,0.8,4.1c0.1,0.2,0.5,0.5,0.7,0.5
		c6,0,12,0,18.1,0c0.2,0,0.6-0.2,0.7-0.4c0.3-1.4,0.6-2.8,0.9-4.3C53.5,104.7,46.5,104.7,39.5,104.7z"/>
	<path class="st1" d="M35.8,192.2c-1.5,0-2.9,0-4.4,0c-1.1,0-1.8-0.6-1.8-1.6c0-0.9,0.7-1.5,1.8-1.5c3,0,6,0,9,0
		c1.1,0,1.8,0.6,1.8,1.6c0,0.9-0.7,1.5-1.8,1.5C38.9,192.2,37.4,192.2,35.8,192.2z"/>
	<path class="st1" d="M46.1,192.2c-1.6,0-2.3-0.4-2.3-1.5c0-1.1,0.7-1.6,2.3-1.6c1.6,0,2.3,0.4,2.3,1.5
		C48.5,191.7,47.8,192.2,46.1,192.2z"/>
</g>
</svg>
