<?xml version="1.0" encoding="utf-8"?>
<!-- Generator: Adobe Illustrator 26.0.2, SVG Export Plug-In . SVG Version: 6.00 Build 0)  -->
<svg version="1.1" id="레이어_1" xmlns="http://www.w3.org/2000/svg" xmlns:xlink="http://www.w3.org/1999/xlink" x="0px"
	 y="0px" viewBox="0 0 100 200" style="enable-background:new 0 0 100 200;" xml:space="preserve">
<style type="text/css">
	.st0{fill:#999999;}
	.st1{fill:#FFFFFF;}
</style>
<g>
	<path class="st0" d="M0,36.7c0.3-1.1,0.5-2.3,0.9-3.4c2.7-7.2,10.7-10,17.3-6c6.8,4.1,9.4,13.3,5.8,20.1c-3.2,5.9-10.3,8-16.2,4.6
		C3.5,49.6,1,45.8,0.2,40.9c0-0.1-0.1-0.3-0.2-0.4C0,39.2,0,38,0,36.7z M19.8,40.6c-0.2-3.2-1.5-6.1-4.7-8.1c-3.2-2-7-0.8-8.5,2.6
		c-1.8,4.1,0.1,9.7,4,11.9c2.6,1.4,5.3,1.2,7.2-0.7C19.2,44.7,19.7,42.9,19.8,40.6z"/>
	<path class="st0" d="M100,53.5c-0.7,1.9-1.1,4-2.1,5.8c-2.7,4.8-6.9,7.5-12.5,7.8c-5.5,0.3-10.4-3.7-11.5-9.2
		c-1.9-9.2,5.6-18.3,15-18.2c5.4,0.1,10,4.2,10.9,9.6c0,0.2,0.1,0.5,0.2,0.7C100,51.2,100,52.3,100,53.5z M79.5,54.9
		c0,4.3,3.1,6.9,7.3,6c4.1-0.9,7.5-5.3,7.4-9.5c-0.2-4-3.2-6.5-7.2-5.8C82.9,46.4,79.5,50.6,79.5,54.9z"/>
	<path class="st0" d="M46.5,41.7c8.6,0.3,15.5,4,20.4,11.3c3.7,5.6,7.3,11.2,10.8,16.8c5.8,9.2,1.1,20.8-9.4,23.4
		c-3,0.7-6.1,0.6-9-0.6c-4.2-1.7-8.5-2.8-13-2.8c-4.3,0-8.4,1-12.4,2.7c-8.3,3.4-17.6-0.8-20.5-9.3c-1.4-4.2-1.3-8.4,1-12.1
		c4.1-6.7,8.1-13.3,12.7-19.7C31.7,44.9,38.5,42,46.5,41.7z M46.3,83.9c1.3,0.1,2.5,0.1,3.8,0.2c3.7,0.4,7.3,1.3,10.7,2.8
		c2.1,0.9,4.3,1.1,6.5,0.5c5.9-1.6,9.1-8.7,5.3-14.6c-3.5-5.4-7-10.9-10.5-16.3c-3.4-5.2-8.1-8.2-14.3-8.7
		c-6.7-0.5-12.3,1.9-16.2,7.4c-4.1,5.9-7.9,12-11.7,18.1c-1.8,2.8-2,5.9-0.6,8.9c2.3,4.9,7.5,6.8,12.6,4.7
		C36.6,85,41.4,83.9,46.3,83.9z"/>
	<path class="st0" d="M53.7,23.9c-0.2,4.8-2.1,9.7-6.9,13.2c-5.4,4-12.3,3.4-17.2-1.2c-6.8-6.4-7.1-18.4-0.6-25.1
		c6.5-6.7,16.3-5.8,21.6,1.9C52.6,15.7,53.7,19.3,53.7,23.9z M30.2,21.9c-0.1,3.8,0.7,6.3,2.4,8.6c2.8,3.9,8.1,4.5,11.5,1.3
		c4.8-4.6,4.9-12.8,0.1-17.5c-2.6-2.5-6.3-2.9-9.3-0.8C31.6,15.7,30.4,19,30.2,21.9z"/>
	<path class="st0" d="M82.9,28.8c-0.5,5.5-2.6,10.1-7.3,13.2c-7.4,5-16.2,2-19.2-6.4c-2.7-7.6,1-16.7,8.2-20.2
		c6.8-3.3,14.5-0.2,17.3,7C82.6,24.5,83,26.6,82.9,28.8z M77.1,27.8c-0.2-0.8-0.3-2-0.7-3.1c-1.3-4-5.4-5.7-9.2-3.9
		c-4.6,2.2-7,8.5-5.1,13.2c1.7,4.2,5.7,5.8,9.7,3.5C75.3,35.5,76.7,32.2,77.1,27.8z"/>
</g>
<g>
	<path class="st1" d="M0,136.7c0.3-1.1,0.5-2.3,0.9-3.4c2.7-7.2,10.7-10,17.3-6c6.8,4.1,9.4,13.3,5.8,20.1c-3.2,5.9-10.3,8-16.2,4.6
		c-4.3-2.5-6.8-6.3-7.7-11.3c0-0.1-0.1-0.3-0.2-0.4C0,139.2,0,138,0,136.7z M19.8,140.6c-0.2-3.2-1.5-6.1-4.7-8.1
		c-3.2-2-7-0.8-8.5,2.6c-1.8,4.1,0.1,9.7,4,11.9c2.6,1.4,5.3,1.2,7.2-0.7C19.2,144.7,19.7,142.9,19.8,140.6z"/>
	<path class="st1" d="M100,153.5c-0.7,1.9-1.1,4-2.1,5.8c-2.7,4.8-6.9,7.5-12.5,7.8c-5.5,0.3-10.4-3.7-11.5-9.2
		c-1.9-9.2,5.6-18.3,15-18.2c5.4,0.1,10,4.2,10.9,9.6c0,0.2,0.1,0.5,0.2,0.7C100,151.2,100,152.3,100,153.5z M79.5,154.9
		c0,4.3,3.1,6.9,7.3,6c4.1-0.9,7.5-5.3,7.4-9.5c-0.2-4-3.2-6.5-7.2-5.8C82.9,146.4,79.5,150.6,79.5,154.9z"/>
	<path class="st1" d="M46.5,141.7c8.6,0.3,15.5,4,20.4,11.3c3.7,5.6,7.3,11.2,10.8,16.8c5.8,9.2,1.1,20.8-9.4,23.4
		c-3,0.7-6.1,0.6-9-0.6c-4.2-1.7-8.5-2.8-13-2.8c-4.3,0-8.4,1-12.4,2.7c-8.3,3.4-17.6-0.8-20.5-9.3c-1.4-4.2-1.3-8.4,1-12.1
		c4.1-6.7,8.1-13.3,12.7-19.7C31.7,144.9,38.5,142,46.5,141.7z M46.3,183.9c1.3,0.1,2.5,0.1,3.8,0.2c3.7,0.4,7.3,1.3,10.7,2.8
		c2.1,0.9,4.3,1.1,6.5,0.5c5.9-1.6,9.1-8.7,5.3-14.6c-3.5-5.4-7-10.9-10.5-16.3c-3.4-5.2-8.1-8.2-14.3-8.7
		c-6.7-0.5-12.3,1.9-16.2,7.4c-4.1,5.9-7.9,12-11.7,18.1c-1.8,2.8-2,5.9-0.6,8.9c2.3,4.9,7.5,6.8,12.6,4.7
		C36.6,185,41.4,183.9,46.3,183.9z"/>
	<path class="st1" d="M53.7,123.9c-0.2,4.8-2.1,9.7-6.9,13.2c-5.4,4-12.3,3.4-17.2-1.2c-6.8-6.4-7.1-18.4-0.6-25.1
		c6.5-6.7,16.3-5.8,21.6,1.9C52.6,115.7,53.7,119.3,53.7,123.9z M30.2,121.9c-0.1,3.8,0.7,6.3,2.4,8.6c2.8,3.9,8.1,4.5,11.5,1.3
		c4.8-4.6,4.9-12.8,0.1-17.5c-2.6-2.5-6.3-2.9-9.3-0.8C31.6,115.7,30.4,119,30.2,121.9z"/>
	<path class="st1" d="M82.9,128.8c-0.5,5.5-2.6,10.1-7.3,13.2c-7.4,5-16.2,2-19.2-6.4c-2.7-7.6,1-16.7,8.2-20.2
		c6.8-3.3,14.5-0.2,17.3,7C82.6,124.5,83,126.6,82.9,128.8z M77.1,127.8c-0.2-0.8-0.3-2-0.7-3.1c-1.3-4-5.4-5.7-9.2-3.9
		c-4.6,2.2-7,8.5-5.1,13.2c1.7,4.2,5.7,5.8,9.7,3.5C75.3,135.5,76.7,132.2,77.1,127.8z"/>
</g>
</svg>
