<?xml version="1.0" encoding="utf-8"?>
<!-- Generator: Adobe Illustrator 26.0.2, SVG Export Plug-In . SVG Version: 6.00 Build 0)  -->
<svg version="1.1" id="레이어_1" xmlns="http://www.w3.org/2000/svg" xmlns:xlink="http://www.w3.org/1999/xlink" x="0px"
	 y="0px" viewBox="0 0 100 200" style="enable-background:new 0 0 100 200;" xml:space="preserve">
<style type="text/css">
	.st0{fill:#999999;}
	.st1{fill:#FFFFFF;}
</style>
<g>
	<path class="st0" d="M0,82.2C0,65,0,47.8,0,30.7c0.1-0.6,0.3-1.1,0.4-1.7C2,22.6,7.6,18,14.2,17.8c5.1-0.1,10.3-0.1,15.4-0.1
		c0.4,0,0.8,0,1.2,0c0-1.6,0-3.1,0-4.6c0-4.9,3.4-8.4,8.3-8.4c7.3,0,14.5,0,21.8,0c1.9,0,3.6,0.5,5.1,1.7c2.1,1.7,3.2,3.9,3.1,6.6
		c0,1.5,0,3.1,0,4.7c0.5,0,0.9,0,1.3,0c4.8,0,9.6,0,14.3,0c7.5,0.1,13.2,4.6,14.9,11.7c0.1,0.4,0.2,0.8,0.3,1.2
		c0,17.2,0,34.4,0,51.6c-0.1,0.4-0.2,0.9-0.3,1.3c-1.7,7.1-7.5,11.7-14.8,11.8c-4.2,0-8.4,0-12.6,0c-19,0-38,0-56.9,0
		c-7.5,0-13.3-4.6-15-11.8C0.2,83.1,0.1,82.7,0,82.2z M50.1,91.5c11.5,0,23,0,34.6,0c3.9,0,7.2-1.3,9.5-4.5c1.6-2.2,2.2-4.6,2.1-7.3
		c-0.1-15.6,0-31.2,0-46.8c0-6.6-4.8-11.4-11.4-11.4c-23.3,0-46.6,0-69.9,0c-6.3,0-11.2,4.8-11.2,11c-0.1,16,0,32,0,48
		c0,3.1,1.1,5.8,3.4,7.9c2.3,2.2,5.1,3.1,8.4,3.1C27,91.5,38.5,91.5,50.1,91.5z M38.1,17.7c0-0.4,0-0.8,0-1.2c0-3,2.2-5.3,5.2-5.4
		c4.5-0.1,8.9-0.1,13.4,0c2.9,0.1,5,2.4,5.1,5.3c0,0.4,0,0.8,0,1.2c1.3,0,2.4,0,3.6,0c0-1.9,0-3.7,0-5.5c0-1.1-0.6-2-1.4-2.7
		c-0.9-0.8-2-1-3.2-1c-7.2,0-14.4,0-21.6,0c-0.3,0-0.6,0-0.9,0.1c-1.6,0.2-2.8,1-3.3,2.5c-0.8,2.2-0.3,4.4-0.4,6.6
		C35.7,17.7,36.8,17.7,38.1,17.7z M58.1,17.7c0.3-2.2-0.3-2.8-2.4-2.8c-3.9,0-7.7,0-11.6,0c-2,0-2.6,0.7-2.1,2.8
		C47.4,17.7,52.7,17.7,58.1,17.7z"/>
	<path class="st0" d="M54.9,52.4c2.6,2.8,5.2,5.5,7.8,8.2c0.2,0.2,0.7,0.3,1,0.2c1.9-0.6,3.9-1.1,5.8-1.8c1.1-0.4,1.9-0.1,2.7,0.7
		c1,1.1,2.1,2.1,3.2,3.2c1.2,1.3,1.1,2.5-0.4,3.3c-3.1,1.8-6.3,3.5-9.4,5.2c-0.3,0.2-0.6,0.5-0.8,0.9c-1.7,3.2-3.4,6.3-5.2,9.5
		c-0.8,1.4-2.1,1.5-3.2,0.4c-1.2-1.2-2.3-2.4-3.5-3.5c-0.7-0.6-0.8-1.4-0.5-2.2c0.6-2,1.2-3.9,1.7-5.9c0.1-0.3,0.1-0.9-0.1-1
		c-2.7-2.6-5.5-5.2-8.3-7.9c-1.1,2.1-2.3,4-3.4,6c-2.1,3.9-4.3,7.7-6.4,11.6c-1.1,1.9-2.2,2.1-3.7,0.5c-1.3-1.3-2.6-2.7-4-4
		c-0.9-0.9-1.1-1.7-0.8-3c2.2-7,4.3-14.1,6.4-21.1c0.2-0.7,0.2-1.1-0.4-1.6c-2.4-2.2-4.8-4.5-7.2-6.8c-2.3-2.2-3.1-4.9-2.1-8
		c1-3,3.2-4.7,6.3-5c2.3-0.3,4.4,0.5,6,2.2c2.4,2.5,4.8,5.1,7.1,7.6c0.5,0.5,0.9,0.3,1.4,0.2c7-2.2,14.1-4.3,21.1-6.5
		c1.3-0.4,2.2-0.2,3,0.8c1.2,1.4,2.5,2.7,3.8,4.1c1.7,1.8,1.5,2.8-0.6,3.9c-5.5,3-11,6.1-16.5,9.1C55.5,52,55.2,52.2,54.9,52.4z
		 M69.4,40c-0.7-0.7-1.4-1.2-1.9-1.8c-0.4-0.5-0.8-0.5-1.5-0.4c-7.1,2.2-14.3,4.3-21.4,6.5c-1.1,0.3-2,0.2-2.8-0.7
		c-2.6-2.8-5.2-5.6-7.9-8.3c-0.6-0.6-1.6-1.1-2.4-1.3c-1.6-0.3-3.1,0.7-3.7,2.1c-0.7,1.5-0.4,3,0.8,4.2c2.7,2.6,5.5,5.3,8.3,7.9
		c1,0.9,1.3,1.9,0.8,3.2c-2.2,7-4.3,14.1-6.5,21.1c-0.1,0.3-0.2,0.8,0,1.1c0.6,0.8,1.3,1.5,2.1,2.4c0.3-0.6,0.5-0.9,0.7-1.2
		c3.1-5.5,6.2-11,9.3-16.5c1-1.8,2.1-2,3.6-0.6c3.5,3.3,7,6.6,10.5,9.9c0.8,0.8,1,1.6,0.7,2.6c-0.6,1.8-1.1,3.5-1.6,5.3
		c-0.4,1.4-0.3,1.7,1.1,2.4c1.4-2.5,2.8-5.1,4.1-7.6c0.5-0.9,1-1.5,1.9-1.9c2.6-1.3,5.1-2.8,7.7-4.2c-1.1-1.5-1.1-1.5-2.6-1
		c-1.7,0.5-3.5,1-5.2,1.6c-1,0.4-1.8,0.1-2.5-0.7c-3.3-3.5-6.6-7-9.8-10.5c-1.5-1.6-1.4-2.7,0.6-3.8c5.5-3.1,10.9-6.1,16.4-9.2
		C68.5,40.5,68.8,40.3,69.4,40z"/>
</g>
<g>
	<path class="st1" d="M0,182.2c0-17.2,0-34.4,0-51.6c0.1-0.6,0.3-1.1,0.4-1.7c1.6-6.4,7.2-11,13.8-11.2c5.1-0.1,10.3-0.1,15.4-0.1
		c0.4,0,0.8,0,1.2,0c0-1.6,0-3.1,0-4.6c0-4.9,3.4-8.4,8.3-8.4c7.3,0,14.5,0,21.8,0c1.9,0,3.6,0.5,5.1,1.7c2.1,1.7,3.2,3.9,3.1,6.6
		c0,1.5,0,3.1,0,4.7c0.5,0,0.9,0,1.3,0c4.8,0,9.6,0,14.3,0c7.5,0.1,13.2,4.6,14.9,11.7c0.1,0.4,0.2,0.8,0.3,1.2
		c0,17.2,0,34.4,0,51.6c-0.1,0.4-0.2,0.9-0.3,1.3c-1.7,7.1-7.5,11.7-14.8,11.8c-4.2,0-8.4,0-12.6,0c-19,0-38,0-56.9,0
		c-7.5,0-13.3-4.6-15-11.8C0.2,183.1,0.1,182.7,0,182.2z M50.1,191.5c11.5,0,23,0,34.6,0c3.9,0,7.2-1.3,9.5-4.5
		c1.6-2.2,2.2-4.6,2.1-7.3c-0.1-15.6,0-31.2,0-46.8c0-6.6-4.8-11.4-11.4-11.4c-23.3,0-46.6,0-69.9,0c-6.3,0-11.2,4.8-11.2,11
		c-0.1,16,0,32,0,48c0,3.1,1.1,5.8,3.4,7.9c2.3,2.2,5.1,3.1,8.4,3.1C27,191.5,38.5,191.5,50.1,191.5z M38.1,117.7c0-0.4,0-0.8,0-1.2
		c0-3,2.2-5.3,5.2-5.4c4.5-0.1,8.9-0.1,13.4,0c2.9,0.1,5,2.4,5.1,5.3c0,0.4,0,0.8,0,1.2c1.3,0,2.4,0,3.6,0c0-1.9,0-3.7,0-5.5
		c0-1.1-0.6-2-1.4-2.7c-0.9-0.8-2-1-3.2-1c-7.2,0-14.4,0-21.6,0c-0.3,0-0.6,0-0.9,0.1c-1.6,0.2-2.8,1-3.3,2.5
		c-0.8,2.2-0.3,4.4-0.4,6.6C35.7,117.7,36.8,117.7,38.1,117.7z M58.1,117.7c0.3-2.2-0.3-2.8-2.4-2.8c-3.9,0-7.7,0-11.6,0
		c-2,0-2.6,0.7-2.1,2.8C47.4,117.7,52.7,117.7,58.1,117.7z"/>
	<path class="st1" d="M54.9,152.4c2.6,2.8,5.2,5.5,7.8,8.2c0.2,0.2,0.7,0.3,1,0.2c1.9-0.6,3.9-1.1,5.8-1.8c1.1-0.4,1.9-0.1,2.7,0.7
		c1,1.1,2.1,2.1,3.2,3.2c1.2,1.3,1.1,2.5-0.4,3.3c-3.1,1.8-6.3,3.5-9.4,5.2c-0.3,0.2-0.6,0.5-0.8,0.9c-1.7,3.2-3.4,6.3-5.2,9.5
		c-0.8,1.4-2.1,1.5-3.2,0.4c-1.2-1.2-2.3-2.4-3.5-3.5c-0.7-0.6-0.8-1.4-0.5-2.2c0.6-2,1.2-3.9,1.7-5.9c0.1-0.3,0.1-0.9-0.1-1
		c-2.7-2.6-5.5-5.2-8.3-7.9c-1.1,2.1-2.3,4-3.4,6c-2.1,3.9-4.3,7.7-6.4,11.6c-1.1,1.9-2.2,2.1-3.7,0.5c-1.3-1.3-2.6-2.7-4-4
		c-0.9-0.9-1.1-1.7-0.8-3c2.2-7,4.3-14.1,6.4-21.1c0.2-0.7,0.2-1.1-0.4-1.6c-2.4-2.2-4.8-4.5-7.2-6.8c-2.3-2.2-3.1-4.9-2.1-8
		c1-3,3.2-4.7,6.3-5c2.3-0.3,4.4,0.5,6,2.2c2.4,2.5,4.8,5.1,7.1,7.6c0.5,0.5,0.9,0.3,1.4,0.2c7-2.2,14.1-4.3,21.1-6.5
		c1.3-0.4,2.2-0.2,3,0.8c1.2,1.4,2.5,2.7,3.8,4.1c1.7,1.8,1.5,2.8-0.6,3.9c-5.5,3-11,6.1-16.5,9.1C55.5,152,55.2,152.2,54.9,152.4z
		 M69.4,140c-0.7-0.7-1.4-1.2-1.9-1.8c-0.4-0.5-0.8-0.5-1.5-0.4c-7.1,2.2-14.3,4.3-21.4,6.5c-1.1,0.3-2,0.2-2.8-0.7
		c-2.6-2.8-5.2-5.6-7.9-8.3c-0.6-0.6-1.6-1.1-2.4-1.3c-1.6-0.3-3.1,0.7-3.7,2.1c-0.7,1.5-0.4,3,0.8,4.2c2.7,2.6,5.5,5.3,8.3,7.9
		c1,0.9,1.3,1.9,0.8,3.2c-2.2,7-4.3,14.1-6.5,21.1c-0.1,0.3-0.2,0.8,0,1.1c0.6,0.8,1.3,1.5,2.1,2.4c0.3-0.6,0.5-0.9,0.7-1.2
		c3.1-5.5,6.2-11,9.3-16.5c1-1.8,2.1-2,3.6-0.6c3.5,3.3,7,6.6,10.5,9.9c0.8,0.8,1,1.6,0.7,2.6c-0.6,1.8-1.1,3.5-1.6,5.3
		c-0.4,1.4-0.3,1.7,1.1,2.4c1.4-2.5,2.8-5.1,4.1-7.6c0.5-0.9,1-1.5,1.9-1.9c2.6-1.3,5.1-2.8,7.7-4.2c-1.1-1.5-1.1-1.5-2.6-1
		c-1.7,0.5-3.5,1-5.2,1.6c-1,0.4-1.8,0.1-2.5-0.7c-3.3-3.5-6.6-7-9.8-10.5c-1.5-1.6-1.4-2.7,0.6-3.8c5.5-3.1,10.9-6.1,16.4-9.2
		C68.5,140.5,68.8,140.3,69.4,140z"/>
</g>
</svg>
